<?xml version="1.0" encoding="UTF-8"?>
<svg version="1.1" xmlns="http://www.w3.org/2000/svg" width="848" height="233">
<path d="M0 0 C1.18513184 0.00563965 2.37026367 0.0112793 3.59130859 0.01708984 C34.4296862 0.44276651 60.56704547 13.42768739 82.75 34.3125 C83.36488281 34.86292969 83.97976562 35.41335937 84.61328125 35.98046875 C99.71188178 50.03778648 108.62779782 70.73853611 113.75 90.3125 C114.01683594 91.32183594 114.28367188 92.33117187 114.55859375 93.37109375 C120.29380745 120.62324712 113.22962454 149.95120512 98.75 173.3125 C93.74059579 180.91403944 87.98225137 187.6928692 81.75 194.3125 C81.19957031 194.92738281 80.64914063 195.54226562 80.08203125 196.17578125 C61.94793553 215.65314332 32.47300264 227.09038405 6.3425293 228.43652344 C-26.97292543 229.50451664 -56.45300822 218.40707346 -80.98388672 195.55517578 C-100.50281319 176.77058582 -115.65680724 148.98070522 -116.25 121.3125 C-116.30800781 119.94158203 -116.30800781 119.94158203 -116.3671875 118.54296875 C-117.0729599 89.2534141 -106.71493546 60.1515475 -86.58300781 38.74316406 C-85.14954062 37.25519981 -83.70231705 35.78205377 -82.25 34.3125 C-81.34636719 33.384375 -80.44273438 32.45625 -79.51171875 31.5 C-58.41998408 10.96254328 -29.25487752 -0.14671453 0 0 Z " fill="#201DBC" transform="translate(118.25,1.6875)"/>
<path d="M0 0 C1.28344695 3.85034086 0.39233346 5.20303442 -0.9375 9 C-5.53345066 24.37814633 -4.01476891 42.23647631 2 57 C2 57.99 2 58.98 2 60 C2.66 60 3.32 60 4 60 C4.30292969 60.58007812 4.60585938 61.16015625 4.91796875 61.7578125 C7.54807998 66.66195836 10.28302849 70.85823175 14 75 C13.7107506 73.35374012 13.41843946 71.70801818 13.125 70.0625 C12.96257813 69.14597656 12.80015625 68.22945313 12.6328125 67.28515625 C12.29735437 65.54367298 11.94801167 63.80248468 11.49658203 62.08740234 C9.74286967 55.23799748 9.61642908 48.54625098 9.625 41.5 C9.6252417 39.65172607 9.6252417 39.65172607 9.62548828 37.76611328 C9.92028825 14.07971175 9.92028825 14.07971175 16 8 C16 9.32 16 10.64 16 12 C16.98581055 11.9592334 17.97162109 11.9184668 18.98730469 11.87646484 C55.61013368 10.40707193 55.61013368 10.40707193 72 13 C73.33324926 13.20302682 74.66659031 13.40545135 76 13.60742188 C150.24088969 24.93077202 150.24088969 24.93077202 175 49 C176.78376932 51.81018407 177.27869681 53.67090837 178 57 C178.556875 58.485 178.556875 58.485 179.125 60 C181.18669257 67.06866024 181.13146536 74.20028215 181.0625 81.5 C181.05798828 82.4178125 181.05347656 83.335625 181.04882812 84.28125 C181.03716326 86.52090391 181.02079614 88.76041545 181 91 C181.66 90.67 182.32 90.34 183 90 C182.67 93.3 182.34 96.6 182 100 C181.67 100 181.34 100 181 100 C180.67 98.02 180.34 96.04 180 94 C179.68546875 95.11117187 179.3709375 96.22234375 179.046875 97.3671875 C173.50030032 116.74752072 173.50030032 116.74752072 171 121 C170.01 121.33 169.02 121.66 168 122 C167.875 117.25 167.875 117.25 169 115 C168.67 114.01 168.34 113.02 168 112 C167.91432754 110.63407817 167.88226353 109.26435142 167.88647461 107.89575195 C167.88655014 107.07512772 167.88662567 106.25450348 167.88670349 105.40901184 C167.89186478 104.52767075 167.89702606 103.64632965 167.90234375 102.73828125 C167.90446617 101.37959175 167.90446617 101.37959175 167.90663147 99.99345398 C167.91222999 97.09976909 167.92478219 94.20616151 167.9375 91.3125 C167.94251519 89.35091258 167.94707807 87.38932394 167.95117188 85.42773438 C167.96219893 80.61845979 167.97946253 75.809243 168 71 C160.34242582 75.0673698 160.34242582 75.0673698 155.92089844 82.16943359 C155.50036851 85.87102685 155.37118127 89.46233041 155.375 93.1875 C155.29971483 95.68099671 155.22419548 98.17448636 155.1484375 100.66796875 C155.13006836 101.87888184 155.11169922 103.08979492 155.09277344 104.33740234 C154.95162937 109.90962136 154.49120317 115.44917088 154 121 C149.88160668 122.4629251 145.89325272 123.47772933 141.58984375 124.2265625 C117.54285193 128.59386252 93.93334125 135.24117061 74 150 C74.73412109 149.74831055 75.46824219 149.49662109 76.22460938 149.23730469 C102.31594447 140.32507971 130.05914148 131.53372123 158 132 C157.84825965 137.00743139 155.09792829 139.27547597 151.69140625 142.546875 C150 144 150 144 148 145 C147.67 145.66 147.34 146.32 147 147 C146.34 147 145.68 147 145 147 C144.77570313 147.57363281 144.55140625 148.14726562 144.3203125 148.73828125 C137.10186067 161.10361738 114.80892693 169.82738197 102.05078125 174.27197266 C100.65149276 174.76872007 99.26088205 175.29044069 97.87890625 175.83349609 C85.57718206 180.62500686 73.74823793 181.58639005 60.6875 181.625 C59.93062897 181.63198914 59.17375793 181.63897827 58.39395142 181.6461792 C44.42542604 181.71772821 31.4749547 179.47618765 18.6875 173.625 C17.70777222 173.17991089 17.70777222 173.17991089 16.70825195 172.72583008 C9.90328375 169.58848003 3.23928247 166.15952165 -3 162 C-4.010625 161.731875 -5.02125 161.46375 -6.0625 161.1875 C-7.031875 160.795625 -8.00125 160.40375 -9 160 C-9.67988025 158.33867972 -10.34532217 156.67141233 -11 155 C-12.55382493 153.27064967 -12.55382493 153.27064967 -14.4375 151.6875 C-18.50629282 147.77577455 -21.72254242 143.4885876 -24.9375 138.875 C-25.42210693 138.19397217 -25.90671387 137.51294434 -26.40600586 136.8112793 C-29.08775831 132.88724095 -30.64380843 129.86542522 -31 125 C-30.01 124.505 -30.01 124.505 -29 124 C-27.76302083 125.52994792 -26.52604167 127.05989583 -25.2890625 128.58984375 C-22.67074795 131.45412118 -19.62185246 131.40833297 -15.91796875 131.90234375 C-14.67466797 132.07056641 -13.43136719 132.23878906 -12.15039062 132.41210938 C-10.84263672 132.58548828 -9.53488281 132.75886719 -8.1875 132.9375 C-3.1237226 133.61593783 1.9387226 134.30315505 7 135 C8.69974976 135.22792236 8.69974976 135.22792236 10.43383789 135.46044922 C17.76438594 136.501351 24.72737229 138.1120131 31.8125 140.25 C32.84133301 140.55429932 33.87016602 140.85859863 34.93017578 141.17211914 C42.46886761 143.44008051 49.83343564 146.0302937 57.1484375 148.93359375 C59.80480795 150.11675988 59.80480795 150.11675988 62 150 C50.7099507 142.19694217 38.20441729 135.84128503 25 132 C25 131.34 25 130.68 25 130 C26.98 130 28.96 130 31 130 C31.33 129.34 31.66 128.68 32 128 C43.96141423 133.5708617 54.18741321 139.6629757 64 148.625 C66.61052741 151.22110413 66.61052741 151.22110413 68.89453125 150.92578125 C71.77578873 149.65888325 73.46977141 147.79415467 75.6875 145.5625 C89.49577962 132.40301155 108.2434961 124.66229024 126.375 119.625 C127.27822998 119.37395508 128.18145996 119.12291016 129.11206055 118.86425781 C135.0567681 117.30023421 140.8697668 116.42738369 147 116 C146.98259766 115.22760986 146.96519531 114.45521973 146.94726562 113.65942383 C146.84132481 105.22640911 147.48457103 97.05335403 148.5 88.6875 C148.64308594 87.45837891 148.78617188 86.22925781 148.93359375 84.96289062 C149.28244317 81.97441396 149.6379897 78.98690587 150 76 C130.09126432 81.50667157 112.81905697 90.61271566 97 104 C96.17628906 104.68835938 95.35257812 105.37671875 94.50390625 106.0859375 C84.18359516 115.00551994 76.27390679 125.54054908 69 137 C65.5837356 133.825526 62.9712473 130.28427309 60.375 126.4375 C59.98054688 125.86064453 59.58609375 125.28378906 59.1796875 124.68945312 C57.43684553 122.13701396 55.71441111 119.57161666 54 117 C50.67387994 116.64576076 47.45623957 116.56360461 44.1171875 116.56054688 C38.9970754 116.42255129 36.02844828 115.43360431 32 112 C29.05154783 108.25300871 28.80557793 105.80328108 29 101.125 C28.74761012 97.50298376 28.59636404 95.65487992 26.12890625 92.9453125 C21.78437939 90.07541195 17.15860373 88.0505402 12.37109375 86.046875 C11.16634399 85.53592285 11.16634399 85.53592285 9.93725586 85.01464844 C8.33879578 84.34919716 6.72879322 83.71068924 5.10766602 83.10253906 C-0.42875161 80.86480658 -0.42875161 80.86480658 -2.125 78.296875 C-2.85052565 76.57012395 -3.43210541 74.78481158 -4 73 C-4.66 72.01 -5.32 71.02 -6 70 C-13.98672014 56.08467607 -12.6137256 34.88685065 -8.84765625 19.91015625 C-6.74113208 12.6780802 -3.8107091 6.50682344 0 0 Z " fill="#032075" transform="translate(50,39)"/>
<path d="M0 0 C1.18513184 0.00563965 2.37026367 0.0112793 3.59130859 0.01708984 C34.4296862 0.44276651 60.56704547 13.42768739 82.75 34.3125 C83.36488281 34.86292969 83.97976562 35.41335937 84.61328125 35.98046875 C99.71188178 50.03778648 108.62779782 70.73853611 113.75 90.3125 C114.01683594 91.32183594 114.28367188 92.33117187 114.55859375 93.37109375 C116.00947418 100.26527731 115.97700752 107.29345882 116.0625 114.3125 C116.08038574 115.32924805 116.09827148 116.34599609 116.11669922 117.39355469 C116.11557129 118.35680664 116.11444336 119.32005859 116.11328125 120.3125 C116.11626221 121.17875 116.11924316 122.045 116.12231445 122.9375 C115.67676864 125.77964405 114.6237419 127.17214237 112.75 129.3125 C111.75 128.3125 111.75 128.3125 111.66821289 126.52172852 C111.6861792 125.75272217 111.70414551 124.98371582 111.72265625 124.19140625 C111.73643311 123.34312256 111.75020996 122.49483887 111.7644043 121.62084961 C111.78821167 120.26165405 111.78821167 120.26165405 111.8125 118.875 C111.87085809 111.73209574 111.63537603 105.23365458 109.75 98.3125 C109.60175781 97.40371094 109.45351562 96.49492188 109.30078125 95.55859375 C107.96633802 88.60245352 105.49729092 85.29346052 99.7421875 81.21484375 C90.07901653 75.07128727 80.55554495 70.02340076 69.79321289 66.06494141 C68.27507058 65.5058645 66.76197394 64.93304701 65.25170898 64.35302734 C28.47406092 50.47157367 -13.38377671 48.08115743 -52.25 49.3125 C-50.70625974 37.10489569 -44.29469262 27.38106259 -36.25 18.3125 C-37.15484792 19.46768918 -38.0744206 20.61135406 -39 21.75 C-39.51046875 22.38808594 -40.0209375 23.02617187 -40.546875 23.68359375 C-42.44667629 25.50060554 -43.68586908 25.91673197 -46.25 26.3125 C-46.91 25.3225 -47.57 24.3325 -48.25 23.3125 C-47.59 23.3125 -46.93 23.3125 -46.25 23.3125 C-46.270625 22.219375 -46.29125 21.12625 -46.3125 20 C-46.25 16.3125 -46.25 16.3125 -45.25 13.3125 C-46.24 12.9825 -47.23 12.6525 -48.25 12.3125 C-47.280625 11.85875 -46.31125 11.405 -45.3125 10.9375 C-42.17920418 9.65463779 -42.17920418 9.65463779 -41.25 7.3125 C-38.8148901 6.37799288 -36.42805742 5.56860299 -33.9375 4.8125 C-33.27943359 4.59980469 -32.62136719 4.38710937 -31.94335938 4.16796875 C-21.42957425 0.91298874 -10.96732615 -0.05500164 0 0 Z " fill="#179CD8" transform="translate(118.25,1.6875)"/>
<path d="M0 0 C0.99 0 1.98 0 3 0 C3 1.65 3 3.3 3 5 C4.65 5 6.3 5 8 5 C8.30963151 18.77860219 7.37842439 32.29274253 6 46 C1.88160668 47.4629251 -2.10674728 48.47772933 -6.41015625 49.2265625 C-30.45714807 53.59386252 -54.06665875 60.24117061 -74 75 C-73.26587891 74.74831055 -72.53175781 74.49662109 -71.77539062 74.23730469 C-45.68405553 65.32507971 -17.94085852 56.53372123 10 57 C9.84825965 62.00743139 7.09792829 64.27547597 3.69140625 67.546875 C2 69 2 69 0 70 C-0.33 70.66 -0.66 71.32 -1 72 C-1.66 72 -2.32 72 -3 72 C-3.33644531 72.86044922 -3.33644531 72.86044922 -3.6796875 73.73828125 C-10.89813933 86.10361738 -33.19107307 94.82738197 -45.94921875 99.27197266 C-47.34850724 99.76872007 -48.73911795 100.29044069 -50.12109375 100.83349609 C-62.42281794 105.62500686 -74.25176207 106.58639005 -87.3125 106.625 C-88.06937103 106.63198914 -88.82624207 106.63897827 -89.60604858 106.6461792 C-103.57457396 106.71772821 -116.5250453 104.47618765 -129.3125 98.625 C-130.29222778 98.17991089 -130.29222778 98.17991089 -131.29174805 97.72583008 C-138.09671625 94.58848003 -144.76071753 91.15952165 -151 87 C-152.010625 86.731875 -153.02125 86.46375 -154.0625 86.1875 C-155.031875 85.795625 -156.00125 85.40375 -157 85 C-157.67988025 83.33867972 -158.34532217 81.67141233 -159 80 C-160.55382493 78.27064967 -160.55382493 78.27064967 -162.4375 76.6875 C-166.50629282 72.77577455 -169.72254242 68.4885876 -172.9375 63.875 C-173.42210693 63.19397217 -173.90671387 62.51294434 -174.40600586 61.8112793 C-177.08775831 57.88724095 -178.64380843 54.86542522 -179 50 C-178.01 49.505 -178.01 49.505 -177 49 C-175.76302083 50.52994792 -174.52604167 52.05989583 -173.2890625 53.58984375 C-170.67074795 56.45412118 -167.62185246 56.40833297 -163.91796875 56.90234375 C-162.67466797 57.07056641 -161.43136719 57.23878906 -160.15039062 57.41210938 C-158.18875977 57.67217773 -158.18875977 57.67217773 -156.1875 57.9375 C-151.1237226 58.61593783 -146.0612774 59.30315505 -141 60 C-139.30025024 60.22792236 -139.30025024 60.22792236 -137.56616211 60.46044922 C-130.23561406 61.501351 -123.27262771 63.1120131 -116.1875 65.25 C-115.15866699 65.55429932 -114.12983398 65.85859863 -113.06982422 66.17211914 C-105.53113239 68.44008051 -98.16656436 71.0302937 -90.8515625 73.93359375 C-88.19519205 75.11675988 -88.19519205 75.11675988 -86 75 C-97.2900493 67.19694217 -109.79558271 60.84128503 -123 57 C-123 56.34 -123 55.68 -123 55 C-121.02 55 -119.04 55 -117 55 C-116.505 54.01 -116.505 54.01 -116 53 C-104.03858577 58.5708617 -93.81258679 64.6629757 -84 73.625 C-81.38947259 76.22110413 -81.38947259 76.22110413 -79.10546875 75.92578125 C-76.22421127 74.65888325 -74.53022859 72.79415467 -72.3125 70.5625 C-58.50422038 57.40301155 -39.7565039 49.66229024 -21.625 44.625 C-20.27015503 44.24843262 -20.27015503 44.24843262 -18.88793945 43.86425781 C-12.9432319 42.30023421 -7.1302332 41.42738369 -1 41 C-1.01740234 40.22760986 -1.03480469 39.45521973 -1.05273438 38.65942383 C-1.15867519 30.22640911 -0.51542897 22.05335403 0.5 13.6875 C0.64308594 12.45837891 0.78617188 11.22925781 0.93359375 9.96289062 C1.28244317 6.97441396 1.6379897 3.98690587 2 1 C1.01 0.505 1.01 0.505 0 0 Z " fill="#033DA4" transform="translate(198,114)"/>
<path d="M0 0 C11.43166783 2.02145346 21.67388486 6.86284217 32 12 C33.14597656 12.56847656 34.29195312 13.13695312 35.47265625 13.72265625 C38.17223783 15.3035623 40.07369426 16.53490082 42 19 C42.75841671 22.15585622 42.94506205 24.89208892 42.83984375 28.1328125 C43.03566601 31.63850865 43.84977297 33.2413934 46 36 C49.56361332 38.94659194 52.02680044 39.15157977 56.5715332 38.85644531 C61.03539793 38.62505249 65.15503005 38.51138097 68.76708984 41.42578125 C72.47351482 45.52888421 75.28443559 50.20523012 78 55 C78.59167969 55.98484375 79.18335937 56.9696875 79.79296875 57.984375 C80.19128906 58.64953125 80.58960937 59.3146875 81 60 C83.79766348 56.551426 86.44953192 53.02727857 89.0625 49.4375 C106.07983861 26.7755213 130.90721537 6.79952749 159 0 C160.32 0 161.64 0 163 0 C163.22587417 8.4232243 162.35362531 16.69716294 161.5 25.0625 C161.35506466 26.51493369 161.21053019 27.96740744 161.06640625 29.41992188 C160.7155574 32.94708837 160.35928883 36.47368203 160 40 C159.32122803 40.15557373 158.64245605 40.31114746 157.94311523 40.47143555 C131.93505471 46.46990909 104.13876275 53.28613277 85.3984375 73.85546875 C83 76 83 76 81.01171875 76.08984375 C78.24633111 74.59170171 76.14635374 72.67251445 73.8125 70.5625 C60.83795338 59.30192047 45.30181767 52.07426883 29 47 C28.26910156 46.75507813 27.53820312 46.51015625 26.78515625 46.2578125 C19.01051307 43.7481939 11.03137352 42.40499214 3 41 C1.81507922 27.34150272 0.70693851 13.69228279 0 0 Z " fill="#F9FAFC" transform="translate(37,115)"/>
<path d="M0 0 C3.86629732 0.54037614 6.23425786 1.53162953 9.6081543 3.47094727 C10.7511499 4.11628418 11.89414551 4.76162109 13.07177734 5.42651367 C14.29878925 6.13786614 15.5257576 6.84929375 16.75268555 7.56079102 C18.68295175 8.65816066 20.61621289 9.7501243 22.54963684 10.84191895 C23.87985562 11.59355091 25.20910131 12.34690746 26.53739929 13.10192871 C34.66925533 17.7170248 42.9368468 22.07505318 51.20068359 26.44775391 C68.96065457 35.89376004 68.96065457 35.89376004 72.56518555 39.49829102 C73.20195399 45.13824013 73.20195399 45.13824013 72.56518555 47.49829102 C69.14880206 50.52902234 65.54431253 52.75612066 61.54174805 54.93188477 C60.96725418 55.24626999 60.39276031 55.56065521 59.80085754 55.88456726 C57.93292344 56.90590211 56.06156291 57.92078143 54.19018555 58.93579102 C51.56781064 60.3670462 48.94731397 61.80172291 46.3269043 63.23657227 C45.67039383 63.59551575 45.01388336 63.95445923 44.33747864 64.32427979 C38.18829295 67.69156966 32.09363123 71.1519368 26.00268555 74.62329102 C22.52751743 76.58879638 19.04787136 78.54614241 15.56518555 80.49829102 C14.90164062 80.87260254 14.2380957 81.24691406 13.55444336 81.63256836 C2.59906478 87.75434088 2.59906478 87.75434088 -4.43481445 86.49829102 C-6.620224 84.92442322 -6.620224 84.92442322 -8.43481445 82.49829102 C-8.8349489 79.87776571 -8.99275585 77.67417707 -8.96826172 75.05517578 C-8.97687729 74.31159821 -8.98549286 73.56802063 -8.99436951 72.8019104 C-9.01704517 70.34748376 -9.01028794 67.89419751 -9.0012207 65.43969727 C-9.00645592 63.73102987 -9.01273203 62.02236538 -9.02000427 60.31370544 C-9.03041161 56.73341265 -9.02584288 53.15351722 -9.01123047 49.57324219 C-8.99404881 44.98848323 -9.01752756 40.40497823 -9.05272007 35.82035923 C-9.07469834 32.29180114 -9.07325152 28.76354284 -9.06495476 25.23493767 C-9.06413533 23.54486657 -9.07099717 21.85477343 -9.08572578 20.16476631 C-9.10317924 17.79933135 -9.08862572 15.4361459 -9.06591797 13.07080078 C-9.07761017 12.37505447 -9.08930237 11.67930817 -9.10134888 10.96247864 C-9.02735544 7.167584 -8.49203982 5.57071328 -6.11004639 2.55615234 C-3.43481445 0.49829102 -3.43481445 0.49829102 0 0 Z " fill="#FBFCFC" transform="translate(95.434814453125,61.501708984375)"/>
<path d="M0 0 C0.02537644 6.60196104 0.04287804 13.20390948 0.05493164 19.8059082 C0.05995719 22.05135569 0.06677865 24.29679992 0.07543945 26.54223633 C0.08758281 29.77165534 0.09324614 33.00103105 0.09765625 36.23046875 C0.10281754 37.23272995 0.10797882 38.23499115 0.11329651 39.2676239 C0.11337204 40.20822159 0.11344757 41.14881927 0.11352539 42.11791992 C0.115746 42.94176682 0.11796661 43.76561371 0.12025452 44.61442566 C-0.0079421 47.15755317 -0.44270612 49.51840931 -1 52 C2.46497592 48.87309986 3.56132788 45.20638083 5 40.875 C5.26055176 40.11324463 5.52110352 39.35148926 5.78955078 38.56665039 C6.53509903 36.38059475 7.26914276 34.19100336 8 32 C8.34804687 30.97003906 8.69609375 29.94007813 9.0546875 28.87890625 C9.7121175 26.92226935 10.35797423 24.96174541 11 23 C11.33 23 11.66 23 12 23 C14.36924259 39.7351262 3.4024266 58.51539134 -5.875 71.6875 C-9.93790317 77.08636747 -14.37111954 82.08340119 -19 87 C-19.55042969 87.61488281 -20.10085937 88.22976562 -20.66796875 88.86328125 C-38.80206447 108.34064332 -68.27699736 119.77788405 -94.4074707 121.12402344 C-109.7710465 121.61653344 -127.05330316 121.35932712 -141 114 C-143.6875 111.25 -143.6875 111.25 -145 109 C-144.505 108.01 -144.505 108.01 -144 107 C-139.83746927 107.46250341 -135.84151544 108.02530601 -131.76953125 109 C-124.26750773 110.50509519 -116.68673525 110.5764665 -109.0625 110.625 C-108.27297943 110.63023682 -107.48345886 110.63547363 -106.67001343 110.64086914 C-91.05854776 110.65188821 -77.57329103 107.81107763 -63 102 C-62.15937012 101.6690332 -61.31874023 101.33806641 -60.45263672 100.99707031 C-47.13855333 95.59879968 -30.34823373 87.10493891 -22 75 C-19.70124793 72.70124793 -17.2051106 70.74471664 -14.65625 68.73046875 C-12.67551799 66.66097752 -11.91403132 64.69182225 -11 62 C-20.98056607 62.9044223 -30.73595899 63.94156537 -40.51171875 66.23046875 C-43.61740652 66.91559808 -46.71424952 67.44183324 -49.85668945 67.92382812 C-57.74847105 69.16088318 -65.29649661 71.10911766 -72.9375 73.4375 C-73.88423584 73.72592773 -74.83097168 74.01435547 -75.80639648 74.31152344 C-81.3440663 76.04650779 -86.68475506 78.0298948 -92.00610352 80.34790039 C-94 81 -94 81 -96 80 C-87.89944207 73.7688016 -79.27545377 69.18803338 -70 65 C-69.33516602 64.69562012 -68.67033203 64.39124023 -67.98535156 64.07763672 C-51.56440589 56.7692382 -33.56732104 54.20704888 -16 51 C-15.77716478 48.59552035 -15.55771537 46.19080136 -15.34228516 43.78564453 C-15.15429801 41.70400674 -14.95986214 39.62294215 -14.75927734 37.54248047 C-14.29673268 32.52352571 -13.94015528 27.60021595 -14.06640625 22.55859375 C-14.27518314 10.7872278 -14.27518314 10.7872278 -11.79980469 7.31787109 C-8.95295823 4.47381384 -4.14794361 0 0 0 Z " fill="#1D84CD" transform="translate(219,109)"/>
<path d="M0 0 C6.67780698 5.65237594 9.60316355 12.24388072 10.8125 20.75 C11.47827702 29.95755453 10.10784107 38.8459796 4 46 C-1.92865254 52.17313306 -6.71409146 55.02364888 -15.375 55.25 C-20.44971409 55.27993932 -23.74099294 54.31475177 -29 53 C-29.33 60.59 -29.66 68.18 -30 76 C-39 78 -39 78 -48 78 C-48 51.6 -48 25.2 -48 -2 C-42.39 -2 -36.78 -2 -31 -2 C-31 -0.68 -31 0.64 -31 2 C-30.39671875 1.65066406 -29.7934375 1.30132812 -29.171875 0.94140625 C-28.37265625 0.48636719 -27.5734375 0.03132813 -26.75 -0.4375 C-25.56664062 -1.11619141 -25.56664062 -1.11619141 -24.359375 -1.80859375 C-16.21070346 -5.92340306 -7.67129888 -4.44785408 0 0 Z M-26 13 C-30.56227693 18.05109231 -30.32929192 23.30002897 -30.29296875 29.81640625 C-29.89812533 34.10703813 -28.92415608 35.90383474 -26 39 C-22.79888929 40.60055535 -19.48117737 40.35481231 -16 40 C-12.27304927 38.59204084 -11.22445739 37.37925558 -9.1875 33.9375 C-7.03379391 28.12864701 -7.12658184 22.22324621 -9.375 16.5 C-10.90551148 13.95615238 -10.90551148 13.95615238 -13 12 C-19.72552412 10.67462826 -19.72552412 10.67462826 -26 13 Z " fill="#2573E3" transform="translate(603,99)"/>
<path d="M0 0 C-0.57823096 4.06225548 -1.89117737 6.84762346 -4.0625 10.3125 C-4.61035156 11.19550781 -5.15820312 12.07851562 -5.72265625 12.98828125 C-6.14417969 13.65214844 -6.56570313 14.31601563 -7 15 C-7.75667969 14.69320312 -8.51335937 14.38640625 -9.29296875 14.0703125 C-16.55596191 11.19865287 -22.86989555 9.57323665 -30.4375 12.1875 C-33.12736255 13.78766723 -33.12736255 13.78766723 -34.1875 16.375 C-34.24163483 19.19000143 -34.24163483 19.19000143 -31.9765625 21.44921875 C-28.54165506 24.39278116 -25.35440387 25.81349341 -21.1875 27.4375 C-12.51144303 31.03378796 -5.44814269 35.14826495 0 43 C3.13125 51.20089286 2.4175496 58.11442449 -1 66 C-4.40253286 73.32738437 -10.77953635 76.04030513 -18 79 C-26.9932714 82.02816035 -38.41027683 80.54760096 -47 77 C-47.76441406 76.68675781 -48.52882813 76.37351562 -49.31640625 76.05078125 C-54.3906323 73.7542174 -54.3906323 73.7542174 -56.4296875 71.23046875 C-57 69 -57 69 -55.6640625 66.203125 C-54.65472656 64.74132812 -54.65472656 64.74132812 -53.625 63.25 C-52.95726562 62.26515625 -52.28953125 61.2803125 -51.6015625 60.265625 C-51.07304687 59.51796875 -50.54453125 58.7703125 -50 58 C-46.93750866 58.5407455 -44.65988936 59.16005207 -41.8125 60.5 C-36.22855537 62.96958771 -29.95474165 63.7262797 -24 62.25 C-20.74576241 61.21956883 -20.74576241 61.21956883 -19 58 C-18.56033225 54.55593596 -18.4716621 52.74847869 -20.5 49.875 C-25.23429266 46.32428051 -30.40696469 44.20876874 -35.9375 42.1875 C-42.36954796 39.66629602 -47.8567357 35.8800114 -52 30.3125 C-54.67421131 24.12838635 -55.00583164 17.37089964 -52.9375 10.9375 C-49.91502455 3.86151775 -44.84848482 -1.15028082 -37.89453125 -4.30859375 C-25.50149718 -8.83141237 -11.25800629 -6.22152979 0 0 Z " fill="#E5E6EB" transform="translate(327,74)"/>
<path d="M0 0 C-1.76429199 4.97209562 -4.3939166 9.43438061 -7 14 C-9.86238492 13.33447935 -12.55612477 12.45094524 -15.3125 11.4375 C-20.72236009 9.63716951 -24.88605317 9.29535106 -30.375 11.125 C-33.21661388 12.80440762 -33.21661388 12.80440762 -34.1875 15.875 C-34.29782952 19.12630498 -34.29782952 19.12630498 -31.984375 21.47265625 C-28.52123233 24.40544854 -25.24383492 25.9124839 -21.0625 27.5625 C-14.51396346 30.19781209 -8.40556287 32.89942658 -3.75 38.4375 C-3.27046875 38.99308594 -2.7909375 39.54867187 -2.296875 40.12109375 C1.73524738 45.96281323 1.82031582 52.13839993 1 59 C-1.51116969 67.01556397 -6.00602468 72.36291732 -13.3671875 76.25 C-24.44482772 80.98347238 -36.05412968 80.0376615 -47.23828125 76.14453125 C-50.62556932 74.74074708 -53.22057257 73.39339585 -56 71 C-56.33 70.01 -56.66 69.02 -57 68 C-55.63671875 65.3359375 -55.63671875 65.3359375 -53.6875 62.375 C-52.73423828 60.90160156 -52.73423828 60.90160156 -51.76171875 59.3984375 C-50 57 -50 57 -48 56 C-45.96875 56.9609375 -45.96875 56.9609375 -43.5 58.375 C-37.18371458 61.65180125 -31.56670228 62.71334046 -24.5625 61.3125 C-21.66726853 59.82957656 -20.3924373 58.94869076 -19 56 C-18.84188612 52.94729537 -18.84188612 52.94729537 -20 50 C-24.0531782 46.07274578 -28.68288055 44.28528624 -33.8125 42.1875 C-41.78199667 38.77941279 -47.68272954 35.35391747 -53 28.375 C-55.16268019 21.07595435 -55.13465294 13.56251891 -52 6.5625 C-48.09394172 -0.19629748 -42.13681673 -4.36377991 -34.6796875 -6.53125 C-22.00708482 -8.74803181 -10.77935769 -6.79568202 0 0 Z " fill="#3787E6" transform="translate(546,75)"/>
<path d="M0 0 C5.61 0 11.22 0 17 0 C17.33 11.22 17.66 22.44 18 34 C20.97 32.68 23.94 31.36 27 30 C34.09435591 28.22641102 39.51837701 28.83423888 46 32 C50.65537518 34.89667789 52.22538476 37.85361581 54 43 C55.0240257 47.82948525 55.13119279 52.54549561 55.09765625 57.4609375 C55.0962413 58.25150543 55.09482635 59.04207336 55.09336853 59.8565979 C55.08780504 62.36277166 55.07525944 64.86885358 55.0625 67.375 C55.05748028 69.08202995 55.0529182 70.78906132 55.04882812 72.49609375 C55.03784759 76.66409748 55.02060839 80.83203321 55 85 C48.25500391 86.98047489 42.9001843 87.91246793 36 86 C35.96241577 84.39560059 35.96241577 84.39560059 35.92407227 82.75878906 C35.82980472 78.78536273 35.72963142 74.81210332 35.62768555 70.83886719 C35.58440984 69.12015695 35.54272959 67.40140576 35.50268555 65.68261719 C35.44480435 63.210161 35.38116164 60.73790953 35.31640625 58.265625 C35.29969376 57.49881409 35.28298126 56.73200317 35.26576233 55.94195557 C35.16987135 52.47826016 34.92084138 49.33633749 34 46 C26.78802793 45.7510105 26.78802793 45.7510105 20 48 C17.77998234 52.09669926 17.66158043 56.14909928 17.5859375 60.70703125 C17.56657135 61.43242599 17.5472052 62.15782074 17.5272522 62.90519714 C17.46777892 65.20751422 17.42120155 67.50988219 17.375 69.8125 C17.33679042 71.37957832 17.29773697 72.94663631 17.2578125 74.51367188 C17.16210437 78.34228152 17.07795552 82.17098942 17 86 C13.55385481 86.72433066 10.40107469 87.1357831 6.875 87.125 C5.60269531 87.12886719 5.60269531 87.12886719 4.3046875 87.1328125 C2 87 2 87 -1 86 C-1.02312283 74.93465142 -1.04091478 63.86930855 -1.05181217 52.80394077 C-1.05704113 47.66640434 -1.06413901 42.52888437 -1.07543945 37.39135742 C-1.08626787 32.4376859 -1.09227674 27.48403026 -1.09487724 22.53034782 C-1.09673157 20.63602384 -1.10035234 18.74170076 -1.10573006 16.8473835 C-1.11293989 14.20365614 -1.11399097 11.55999529 -1.11352539 8.91625977 C-1.11712067 8.12504227 -1.12071594 7.33382477 -1.12442017 6.51863098 C-1.11405216 1.11405216 -1.11405216 1.11405216 0 0 Z " fill="#1788DF" transform="translate(623,66)"/>
<path d="M0 0 C5.61 0 11.22 0 17 0 C17.33 16.17 17.66 32.34 18 49 C26.73691766 39.70428082 26.73691766 39.70428082 35 30 C37.29003906 29.43237305 37.29003906 29.43237305 39.765625 29.51171875 C40.65507812 29.52783203 41.54453125 29.54394531 42.4609375 29.56054688 C43.84152344 29.62338867 43.84152344 29.62338867 45.25 29.6875 C46.18585938 29.71005859 47.12171875 29.73261719 48.0859375 29.75585938 C50.39225674 29.81469405 52.69530838 29.89682854 55 30 C55 33.55571281 54.52344969 33.86726899 52.1484375 36.328125 C51.54386719 36.96363281 50.93929687 37.59914062 50.31640625 38.25390625 C49.67574219 38.91261719 49.03507812 39.57132813 48.375 40.25 C47.13140213 41.54552263 45.8892045 42.84239089 44.6484375 44.140625 C44.0409668 44.77548828 43.43349609 45.41035156 42.80761719 46.06445312 C40.10332748 48.96013232 37.55165219 51.96942232 35 55 C37.62143271 59.77641832 40.98321747 63.81626563 44.4375 68 C46.12539859 70.05813507 47.81297128 72.11653307 49.49951172 74.17578125 C50.79406252 75.7496315 52.1009652 77.31330695 53.41015625 78.875 C55 81 55 81 55 83 C55.99 83.33 56.98 83.66 58 84 C58 84.66 58 85.32 58 86 C54.96673215 87.51663393 52.121154 87.17097474 48.75 87.1875 C47.44546875 87.20167969 46.1409375 87.21585937 44.796875 87.23046875 C39.32355512 86.89824049 36.27472835 86.37323904 32.47265625 82.27734375 C31.65486331 81.17460263 30.85192851 80.06072121 30.0625 78.9375 C29.20209621 77.76542433 28.3414174 76.5935505 27.48046875 75.421875 C27.0632959 74.84373047 26.64612305 74.26558594 26.21630859 73.66992188 C24.48996655 71.29975335 22.68547351 68.99374212 20.875 66.6875 C19.91635155 65.45857909 18.95796081 64.22945702 18 63 C18.00785522 63.99181274 18.00785522 63.99181274 18.01586914 65.00366211 C18.03657656 67.98159851 18.04964012 70.95951982 18.0625 73.9375 C18.07087891 74.97841797 18.07925781 76.01933594 18.08789062 77.09179688 C18.09272461 78.57583008 18.09272461 78.57583008 18.09765625 80.08984375 C18.10551147 81.46450806 18.10551147 81.46450806 18.11352539 82.86694336 C18 85 18 85 17 86 C14.73493088 86.26372085 12.46196727 86.46103223 10.1875 86.625 C8.94355469 86.72039062 7.69960938 86.81578125 6.41796875 86.9140625 C3.53994095 86.98642434 1.70101099 86.76412365 -1 86 C-1.02312283 74.93465142 -1.04091478 63.86930855 -1.05181217 52.80394077 C-1.05704113 47.66640434 -1.06413901 42.52888437 -1.07543945 37.39135742 C-1.08626787 32.4376859 -1.09227674 27.48403026 -1.09487724 22.53034782 C-1.09673157 20.63602384 -1.10035234 18.74170076 -1.10573006 16.8473835 C-1.11293989 14.20365614 -1.11399097 11.55999529 -1.11352539 8.91625977 C-1.11712067 8.12504227 -1.12071594 7.33382477 -1.12442017 6.51863098 C-1.11405216 1.11405216 -1.11405216 1.11405216 0 0 Z " fill="#E6E7EC" transform="translate(338,66)"/>
<path d="M0 0 C4.97799319 3.98794622 8.36606051 8.26191148 9.7265625 14.55859375 C10.14510522 19.89103991 9.96231425 25.22143604 9.7265625 30.55859375 C5.93118619 31.77733125 2.29864629 31.67197503 -1.6640625 31.65625 C-2.36867615 31.65483505 -3.07328979 31.6534201 -3.79925537 31.65196228 C-6.04069334 31.64638308 -8.28202993 31.63383448 -10.5234375 31.62109375 C-12.04687355 31.61607606 -13.57031118 31.61151362 -15.09375 31.60742188 C-18.82034522 31.59642049 -22.54688146 31.57917021 -26.2734375 31.55859375 C-24.46931107 34.82320348 -23.43949057 36.4478917 -20.2734375 38.55859375 C-12.04593226 39.37288411 -4.89594963 38.7127367 2.7265625 35.55859375 C3.54298504 36.82691068 4.35455355 38.09835306 5.1640625 39.37109375 C5.84275391 40.43263672 5.84275391 40.43263672 6.53515625 41.515625 C7.7265625 43.55859375 7.7265625 43.55859375 8.7265625 46.55859375 C6.49293483 49.04830612 4.41209267 50.35701583 1.3515625 51.68359375 C0.60132813 52.01617187 -0.14890625 52.34875 -0.921875 52.69140625 C-9.16168213 55.73000622 -19.38966649 55.99229905 -27.6484375 52.99609375 C-35.29017987 49.42659567 -40.74155566 44.18745853 -44.2734375 36.55859375 C-46.6664987 26.93784097 -46.17547594 17.24439311 -41.2734375 8.55859375 C-37.00820184 1.74754555 -30.47346648 -2.19655083 -22.6953125 -4.05859375 C-14.6798991 -5.32554619 -6.94228489 -4.40155176 0 0 Z M-26.2734375 14.55859375 C-26.2734375 15.87859375 -26.2734375 17.19859375 -26.2734375 18.55859375 C-20.0034375 18.55859375 -13.7334375 18.55859375 -7.2734375 18.55859375 C-6.9434375 17.89859375 -6.6134375 17.23859375 -6.2734375 16.55859375 C-7.95818472 13.18909932 -9.0926033 11.67914989 -12.2734375 9.55859375 C-18.90066242 8.79809253 -21.75505041 9.58836795 -26.2734375 14.55859375 Z " fill="#0B98DB" transform="translate(730.2734375,99.44140625)"/>
<path d="M0 0 C5.85457593 4.69019001 8.31198411 9.96121397 10.4765625 16.99609375 C10.88459431 21.17841979 10.799928 25.36045682 10.7265625 29.55859375 C5.80197667 31.15501024 1.71063049 31.79880034 -3.51953125 31.75390625 C-4.17550797 31.75107635 -4.83148468 31.74824646 -5.50733948 31.74533081 C-7.57540159 31.73425359 -9.64300923 31.70917438 -11.7109375 31.68359375 C-13.12434265 31.67354777 -14.53775467 31.66442477 -15.95117188 31.65625 C-19.39207144 31.63435559 -22.83271002 31.59991426 -26.2734375 31.55859375 C-23.74550131 36.1762636 -23.74550131 36.1762636 -19.2734375 38.55859375 C-11.82170586 39.30863733 -5.95592662 38.828748 0.7265625 35.55859375 C2.765625 35.73046875 2.765625 35.73046875 4.7265625 36.55859375 C6.02734375 38.265625 6.02734375 38.265625 7.0390625 40.37109375 C7.38582031 41.05816406 7.73257813 41.74523437 8.08984375 42.453125 C8.85467065 44.98221518 8.79370019 46.14746662 7.7265625 48.55859375 C-0.38867377 54.75126781 -11.50831587 55.46831617 -21.2734375 54.55859375 C-29.72370099 52.72110156 -36.72818617 48.82494094 -41.6171875 41.5625 C-45.64973726 33.71342994 -46.1763763 24.42213272 -44.3984375 15.87109375 C-42.10317025 8.7348992 -37.23340139 2.9459404 -30.82421875 -0.91796875 C-20.67390699 -5.58207895 -9.71799369 -6.16140837 0 0 Z M-25.2734375 13.55859375 C-25.6034375 15.20859375 -25.9334375 16.85859375 -26.2734375 18.55859375 C-19.6734375 18.55859375 -13.0734375 18.55859375 -6.2734375 18.55859375 C-7.71384972 12.96285111 -7.71384972 12.96285111 -9.8984375 10.68359375 C-15.79141844 7.89218173 -20.98369379 8.7488811 -25.2734375 13.55859375 Z " fill="#03C1D5" transform="translate(834.2734375,99.44140625)"/>
<path d="M0 0 C5.61 0 11.22 0 17 0 C17 28.38 17 56.76 17 86 C4 87 4 87 -1 86 C-1.02312283 74.93465142 -1.04091478 63.86930855 -1.05181217 52.80394077 C-1.05704113 47.66640434 -1.06413901 42.52888437 -1.07543945 37.39135742 C-1.08626787 32.4376859 -1.09227674 27.48403026 -1.09487724 22.53034782 C-1.09673157 20.63602384 -1.10035234 18.74170076 -1.10573006 16.8473835 C-1.11293989 14.20365614 -1.11399097 11.55999529 -1.11352539 8.91625977 C-1.11712067 8.12504227 -1.12071594 7.33382477 -1.12442017 6.51863098 C-1.11405216 1.11405216 -1.11405216 1.11405216 0 0 Z " fill="#D0DCED" transform="translate(432,66)"/>
<path d="M0 0 C5.61 0 11.22 0 17 0 C18.7772169 1.7772169 18.11988099 4.152472 18.12442017 6.51863098 C18.12082489 7.30984848 18.11722961 8.10106598 18.11352539 8.91625977 C18.11367142 9.74545929 18.11381744 10.57465881 18.1139679 11.4289856 C18.11326851 14.18315198 18.10547493 16.93725161 18.09765625 19.69140625 C18.09579216 21.59569766 18.09436822 23.49998955 18.09336853 25.40428162 C18.08954263 30.42667963 18.07971173 35.44904892 18.06866455 40.47143555 C18.05845198 45.5922812 18.05387124 50.71313148 18.04882812 55.83398438 C18.03808953 65.88933557 18.02101224 75.9446654 18 86 C15.7722603 86.22307542 13.54268636 86.42788178 11.3125 86.625 C10.07113281 86.74101562 8.82976562 86.85703125 7.55078125 86.9765625 C4 87 4 87 -1 85 C-0.67 56.95 -0.34 28.9 0 0 Z " fill="#D3E5FC" transform="translate(462,66)"/>
<path d="M0 0 C0.99128906 -0.00257812 1.98257813 -0.00515625 3.00390625 -0.0078125 C5.4375 0.125 5.4375 0.125 6.4375 1.125 C6.34663549 3.66041298 6.2004055 6.16054784 6 8.6875 C5.94779297 9.39841797 5.89558594 10.10933594 5.84179688 10.84179688 C5.71175893 12.60321999 5.57523103 14.36416173 5.4375 16.125 C2.74457402 17.02264199 0.84904684 17.27106802 -1.9375 17.4375 C-6.23205834 17.89139641 -8.56664054 18.85678968 -11.5625 22.125 C-13.54824582 26.11011672 -13.85964229 29.53354998 -13.9765625 33.95703125 C-14.01523437 35.24931641 -14.05390625 36.54160156 -14.09375 37.87304688 C-14.12520014 39.22785995 -14.15644761 40.58267775 -14.1875 41.9375 C-14.2257175 43.31187272 -14.2647714 44.68622244 -14.3046875 46.06054688 C-14.39885404 49.41522989 -14.484482 52.76990893 -14.5625 56.125 C-18.09634559 57.30294853 -20.96527553 57.25764317 -24.6875 57.25 C-26.57855469 57.25386719 -26.57855469 57.25386719 -28.5078125 57.2578125 C-31.5625 57.125 -31.5625 57.125 -32.5625 56.125 C-32.6560919 54.40634591 -32.67994611 52.68384256 -32.67602539 50.96264648 C-32.67594986 49.86158066 -32.67587433 48.76051483 -32.67579651 47.62608337 C-32.67063522 46.4281868 -32.66547394 45.23029022 -32.66015625 43.99609375 C-32.6587413 42.77672623 -32.65732635 41.5573587 -32.65586853 40.30104065 C-32.65024967 36.3881693 -32.63769396 32.47535419 -32.625 28.5625 C-32.61998743 25.91731853 -32.6154241 23.27213617 -32.61132812 20.62695312 C-32.60027411 14.12628026 -32.58299683 7.62564968 -32.5625 1.125 C-26.9525 1.125 -21.3425 1.125 -15.5625 1.125 C-15.2325 3.105 -14.9025 5.085 -14.5625 7.125 C-14.08039062 6.70347656 -13.59828125 6.28195313 -13.1015625 5.84765625 C-12.46992187 5.29980469 -11.83828125 4.75195312 -11.1875 4.1875 C-10.24777344 3.36958984 -10.24777344 3.36958984 -9.2890625 2.53515625 C-6.14491226 -0.03280356 -3.99519829 -0.01041773 0 0 Z " fill="#08A7D8" transform="translate(781.5625,95.875)"/>
<path d="M0 0 C3.98175657 1.4914941 6.74043984 3.25510724 10 6 C10.99 6.66 11.98 7.32 13 8 C13.52416992 11.09765625 13.52416992 11.09765625 13.73046875 15.0625 C13.770616 15.76842285 13.81076324 16.4743457 13.85212708 17.20166016 C13.97733473 19.4672838 14.08232709 21.73336733 14.1875 24 C14.26892931 25.49616247 14.35159808 26.99225803 14.43554688 28.48828125 C14.8422293 35.99588157 15.09698914 43.47961164 15 51 C16.06734375 51.08636719 17.1346875 51.17273438 18.234375 51.26171875 C41.10449134 53.32569606 62.0421071 60.07825824 82.375 70.6875 C83.05844482 71.04360352 83.74188965 71.39970703 84.44604492 71.76660156 C88.74814747 74.09706401 92.33338071 76.75907181 96 80 C95.01 80.495 95.01 80.495 94 81 C92.13887485 80.23073494 90.31186908 79.37902559 88.5 78.5 C81.47311541 75.28078686 74.20745888 73.23332193 66.75 71.25 C65.64978516 70.95673828 64.54957031 70.66347656 63.41601562 70.36132812 C52.83962622 67.60420795 42.22730502 65.6500641 31.4375 63.9375 C29.8297168 63.67743164 29.8297168 63.67743164 28.18945312 63.41210938 C23.44989688 62.65551966 18.75665404 61.95831246 13.97265625 61.5625 C10.53063699 61.20287439 8.53574942 60.55558056 6 58.0625 C5.443125 57.53785156 4.88625 57.01320312 4.3125 56.47265625 C0.34463814 52.02062077 1.30711579 44.98182176 0.9375 39.3125 C0.87021698 38.31014313 0.87021698 38.31014313 0.80157471 37.28753662 C-0.02276253 24.84946847 -0.22040402 12.46507162 0 0 Z " fill="#F4F5FA" transform="translate(18,110)"/>
<path d="M0 0 C0.1060426 11.29308345 -0.10441764 22.53702053 -0.68969727 33.81591797 C-0.81449803 36.28960311 -0.91983669 38.76370885 -1.02539062 41.23828125 C-1.10558349 42.8307894 -1.18691965 44.42324049 -1.26953125 46.015625 C-1.3119268 47.11091522 -1.3119268 47.11091522 -1.35517883 48.22833252 C-1.60861474 52.59190451 -2.32687345 55.51433009 -5 59 C-9.81355923 62.20903949 -14.39603515 62.58941805 -20 63 C-26.9877383 63.62144446 -33.66988318 64.62851648 -40.51171875 66.23046875 C-43.61740652 66.91559808 -46.71424952 67.44183324 -49.85668945 67.92382812 C-57.74847105 69.16088318 -65.29649661 71.10911766 -72.9375 73.4375 C-73.88423584 73.72592773 -74.83097168 74.01435547 -75.80639648 74.31152344 C-81.3440663 76.04650779 -86.68475506 78.0298948 -92.00610352 80.34790039 C-94 81 -94 81 -96 80 C-87.89944207 73.7688016 -79.27545377 69.18803338 -70 65 C-69.00274902 64.54343018 -69.00274902 64.54343018 -67.98535156 64.07763672 C-51.56440589 56.7692382 -33.56732104 54.20704888 -16 51 C-15.77716478 48.59552035 -15.55771537 46.19080136 -15.34228516 43.78564453 C-15.15429801 41.70400674 -14.95986214 39.62294215 -14.75927734 37.54248047 C-14.29673268 32.52352571 -13.94015528 27.60021595 -14.06640625 22.55859375 C-14.27518314 10.7872278 -14.27518314 10.7872278 -11.79980469 7.31787109 C-8.95295823 4.47381384 -4.14794361 0 0 0 Z " fill="#F6FAFB" transform="translate(219,109)"/>
<path d="M0 0 C1.46751239 0.00399142 2.93502584 0.01874717 4.40234375 0.04296875 C5.14806641 0.04361328 5.89378906 0.04425781 6.66210938 0.04492188 C12.19956216 0.09018716 12.19956216 0.09018716 13.33984375 1.23046875 C13.43343565 2.94912284 13.45728986 4.67162619 13.45336914 6.39282227 C13.45329361 7.49388809 13.45321808 8.59495392 13.45314026 9.72938538 C13.44797897 10.92728195 13.44281769 12.12517853 13.4375 13.359375 C13.43608505 14.57874252 13.4346701 15.79811005 13.43321228 17.0544281 C13.42759342 20.96729945 13.41503771 24.88011456 13.40234375 28.79296875 C13.39733118 31.43815022 13.39276785 34.08333258 13.38867188 36.72851562 C13.37761786 43.22918601 13.36086139 49.72982336 13.33984375 56.23046875 C6.82740167 56.92555698 0.78876285 57.54956584 -5.66015625 56.23046875 C-5.71073416 48.57668876 -5.74583809 40.92295162 -5.77001953 33.26904297 C-5.78009689 30.66355784 -5.79375895 28.05808406 -5.81103516 25.45263672 C-5.83520727 21.71448976 -5.84662185 17.9764919 -5.85546875 14.23828125 C-5.86579132 13.06741974 -5.87611389 11.89655823 -5.88674927 10.69021606 C-5.88690033 9.60924652 -5.88705139 8.52827698 -5.88720703 7.41455078 C-5.89164825 6.45968781 -5.89608948 5.50482483 -5.90066528 4.52102661 C-5.46806562 0.40103766 -3.94739709 0.24855542 0 0 Z " fill="#CCD4E1" transform="translate(405.66015625,95.76953125)"/>
<path d="M0 0 C0.99 0 1.98 0 3 0 C3 1.65 3 3.3 3 5 C4.65 5 6.3 5 8 5 C8.30963151 18.77860219 7.37842439 32.29274253 6 46 C1.88160668 47.4629251 -2.10674728 48.47772933 -6.41015625 49.2265625 C-30.08342165 53.52598811 -54.6572404 59.88692313 -74 75 C-74 75.66 -74 76.32 -74 77 C-75.485 77.495 -75.485 77.495 -77 78 C-76.20586041 72.46583971 -71.87171091 69.57800827 -67.70019531 66.26171875 C-53.91451459 56.03133421 -38.06744773 49.19303704 -21.625 44.625 C-20.27015503 44.24843262 -20.27015503 44.24843262 -18.88793945 43.86425781 C-12.9432319 42.30023421 -7.1302332 41.42738369 -1 41 C-1.01740234 40.22760986 -1.03480469 39.45521973 -1.05273438 38.65942383 C-1.15867519 30.22640911 -0.51542897 22.05335403 0.5 13.6875 C0.64308594 12.45837891 0.78617187 11.22925781 0.93359375 9.96289062 C1.28244317 6.97441396 1.6379897 3.98690587 2 1 C1.01 0.505 1.01 0.505 0 0 Z " fill="#12A1CD" transform="translate(198,114)"/>
<path d="M0 0 C4.84375 1.734375 4.84375 1.734375 6.25 4.125 C8.5549878 12.96078658 8.09892802 21.94258999 8 31 C8.73863281 31.03738281 9.47726563 31.07476562 10.23828125 31.11328125 C17.52832752 31.58569848 24.02209677 32.91361692 31 35 C32.91651402 35.47977685 34.83317961 35.95894866 36.75 36.4375 C41.38384508 37.70550059 45.05019313 39.25230826 49 42 C49.33 42.99 49.66 43.98 50 45 C43.47392692 45.2460226 38.21705678 44.54624324 32 42.625 C23.70990702 40.14948612 15.50842024 38.13808298 6.9375 36.875 C5.81214844 36.70742187 4.68679687 36.53984375 3.52734375 36.3671875 C2.27630859 36.18542969 2.27630859 36.18542969 1 36 C-0.00025163 28.10849953 -0.12008681 20.32197932 -0.0625 12.375 C-0.05798828 11.18003906 -0.05347656 9.98507813 -0.04882812 8.75390625 C-0.03715603 5.83588353 -0.02078326 2.91796963 0 0 Z " fill="#1216A0" transform="translate(32,125)"/>
<path d="M0 0 C0.33 0.99 0.66 1.98 1 3 C1.99 3 2.98 3 4 3 C4.33 2.34 4.66 1.68 5 1 C4.855625 1.928125 4.71125 2.85625 4.5625 3.8125 C4.58185246 13.41131904 15.37571334 24.3456855 21.8046875 30.81640625 C22.34351562 31.33074219 22.88234375 31.84507812 23.4375 32.375 C25.94561869 34.94429231 26.38627547 35.68447669 27 39 C27.94875 39.20625 28.8975 39.4125 29.875 39.625 C34.10604961 40.82661809 37.46894297 43.02768566 41.17578125 45.34375 C47.77175642 49.21192908 54.88772486 52.2129347 62 55 C61.34 55.99 60.68 56.98 60 58 C60 58.66 60 59.32 60 60 C60.99 60.33 61.98 60.66 63 61 C59.3523073 62.21589757 58.09991378 61.38247172 54.75878906 59.75268555 C54.07526367 59.40117432 53.39173828 59.04966309 52.6875 58.6875 C51.9769043 58.32503174 51.26630859 57.96256348 50.53417969 57.58911133 C29.48038049 46.53984889 7.01660587 27.47557912 -1.21875 4.6171875 C-1.4765625 3.75351563 -1.734375 2.88984375 -2 2 C-1.34 1.34 -0.68 0.68 0 0 Z " fill="#1F17A4" transform="translate(15,160)"/>
<path d="M0 0 C3.26686534 2.391533 4.84151531 5.02928125 5.5 9.0625 C4.93042449 12.40875611 4.0814999 14.32378584 2 17 C-1.7407689 19.3290075 -4.53736938 19.27324192 -8.80078125 18.66015625 C-12.85168562 17.44416542 -13.9743361 15.71371715 -16 12 C-16.44454733 7.78892435 -15.70191567 4.91249038 -13.125 1.5625 C-8.97106983 -1.49186042 -4.8043373 -1.51420748 0 0 Z " fill="#D6D8E0" transform="translate(415,67)"/>
<path d="M0 0 C0.33 0 0.66 0 1 0 C3.0358196 14.37999561 -5.18119333 31.25456796 -13 43 C-14.62401295 44.70825569 -16.28137919 46.38695999 -18 48 C-18 44.79604584 -17.25664978 42.90600261 -16 40 C-21.29735673 44.3760773 -26.09639176 49.07404842 -30.86328125 54.0234375 C-33 56 -33 56 -35 56 C-35 52.99472353 -33.05564773 52.05564773 -31 50 C-30.4534375 49.57203125 -29.906875 49.1440625 -29.34375 48.703125 C-25.1991092 45.47349437 -25.1991092 45.47349437 -22.9375 40.8125 C-22 38 -22 38 -19 36.375 C-18.01 35.92125 -17.02 35.4675 -16 35 C-14.05604393 32.03054378 -13.71417956 29.52090784 -13.5859375 26.015625 C-13.54726562 25.08105469 -13.50859375 24.14648438 -13.46875 23.18359375 C-13.4378125 22.21550781 -13.406875 21.24742187 -13.375 20.25 C-13.33632812 19.26644531 -13.29765625 18.28289062 -13.2578125 17.26953125 C-13.16371574 14.84653963 -13.07807672 12.42355204 -13 10 C-12.34 9.67 -11.68 9.34 -11 9 C-10.97287649 11.39591038 -10.9531018 13.79150957 -10.9375 16.1875 C-10.92912109 16.86103516 -10.92074219 17.53457031 -10.91210938 18.22851562 C-10.89393462 21.95434131 -11.10700608 25.3788042 -12 29 C-8.53502408 25.87309986 -7.43867212 22.20638083 -6 17.875 C-5.73944824 17.11324463 -5.47889648 16.35148926 -5.21044922 15.56665039 C-4.46490097 13.38059475 -3.73085724 11.19100336 -3 9 C-2.47792969 7.45505859 -2.47792969 7.45505859 -1.9453125 5.87890625 C-1.2878825 3.92226935 -0.64202577 1.96174541 0 0 Z " fill="#18B0D0" transform="translate(230,132)"/>
<path d="M0 0 C0 0.33 0 0.66 0 1 C-1.02996094 1.03738281 -2.05992188 1.07476562 -3.12109375 1.11328125 C-7.75564399 1.31043773 -12.37651102 1.62647858 -17 2 C-17.763125 2.05961914 -18.52625 2.11923828 -19.3125 2.18066406 C-29.1251149 3.06226618 -35.25811032 4.59137437 -41.921875 12.4296875 C-42.60765625 13.27789062 -43.2934375 14.12609375 -44 15 C-45.65189648 16.6813071 -47.31675083 18.35008249 -49 20 C-50.051875 21.11375 -50.051875 21.11375 -51.125 22.25 C-53 24 -53 24 -56 25 C-56.66 24.01 -57.32 23.02 -58 22 C-57.34 22 -56.68 22 -56 22 C-56.0309375 20.3603125 -56.0309375 20.3603125 -56.0625 18.6875 C-56 15 -56 15 -55 12 C-55.99 11.67 -56.98 11.34 -58 11 C-56.5459375 10.319375 -56.5459375 10.319375 -55.0625 9.625 C-51.92920418 8.34213779 -51.92920418 8.34213779 -51 6 C-46.43930362 4.01200414 -41.97614791 3.60512892 -37.07421875 3.24609375 C-35.01210284 3.21839359 -35.01210284 3.21839359 -34 2 C-22.74170894 -0.45212381 -11.44920181 -0.20732961 0 0 Z " fill="#4478D9" transform="translate(128,3)"/>
<path d="M0 0 C0 1.65 0 3.3 0 5 C-1.06734375 5.3403125 -2.1346875 5.680625 -3.234375 6.03125 C-18.13743644 10.84770005 -33.16531424 15.7808717 -46.6875 23.8125 C-47.31744873 24.18544189 -47.94739746 24.55838379 -48.59643555 24.94262695 C-52.22356511 27.1816887 -52.22356511 27.1816887 -54 31 C-54.99 31.33 -55.98 31.66 -57 32 C-56.20586041 26.46583971 -51.87171091 23.57800827 -47.70019531 20.26171875 C-34.7223271 10.63081368 -16.54402498 0 0 0 Z " fill="#1069B4" transform="translate(178,160)"/>
<path d="M0 0 C0.33 0 0.66 0 1 0 C0 7 0 7 -0.52246094 10.32617188 C-1.30843263 16.37284981 -1.2350415 22.40964591 -1.25 28.5 C-1.25233643 29.16997009 -1.25467285 29.83994019 -1.25708008 30.5302124 C-1.26877402 39.39448965 -0.88442175 47.77959379 1.34375 56.3828125 C2 59 2 59 2 63 C2.639375 63.20625 3.27875 63.4125 3.9375 63.625 C6 65 6 65 6.75 68.125 C6.8325 69.07375 6.915 70.0225 7 71 C6.34 71 5.68 71 5 71 C5 72.65 5 74.3 5 76 C-4.77178881 66.22821119 -5.91785063 44.02375158 -6.25 31 C-6.09759984 22.46559127 -5.33061704 13.23064756 -3 5 C-2.34 5 -1.68 5 -1 5 C-0.67 3.35 -0.34 1.7 0 0 Z " fill="#2A149D" transform="translate(8,86)"/>
<path d="M0 0 C5.61 0 11.22 0 17 0 C18 1 18 1 18.09765625 3.50390625 C18.08605469 4.51324219 18.07445312 5.52257812 18.0625 6.5625 C18.05347656 7.57441406 18.04445313 8.58632812 18.03515625 9.62890625 C18.02355469 10.41136719 18.01195312 11.19382812 18 12 C17.67 12 17.34 12 17 12 C16.505 7.05 16.505 7.05 16 2 C14.453125 2.020625 12.90625 2.04125 11.3125 2.0625 C7.56668585 2.11244419 4.76860494 1.75372099 1 1 C1 28.72 1 56.44 1 85 C6.28 85 11.56 85 17 85 C17 64.54 17 44.08 17 23 C17.33 23 17.66 23 18 23 C18 43.79 18 64.58 18 86 C4 87 4 87 -1 85 C-0.67 56.95 -0.34 28.9 0 0 Z " fill="#4A598A" transform="translate(462,66)"/>
<path d="M0 0 C0.33 0.66 0.66 1.32 1 2 C0.48050781 2.61746094 -0.03898437 3.23492188 -0.57421875 3.87109375 C-7.06380191 11.7521587 -11.66932056 19.35855952 -15 29 C-15.66 29 -16.32 29 -17 29 C-17.66 32.3 -18.32 35.6 -19 39 C-21 39 -21 39 -22.5 37.625 C-22.995 37.08875 -23.49 36.5525 -24 36 C-24.66 35.34 -25.32 34.68 -26 34 C-23.11563699 22.03785647 -17.81004245 15.30734403 -8 8 C-7.34 8 -6.68 8 -6 8 C-4.41544134 6.21276059 -4.41544134 6.21276059 -2.875 4 C-2.33617188 3.2575 -1.79734375 2.515 -1.2421875 1.75 C-0.83226563 1.1725 -0.42234375 0.595 0 0 Z " fill="#2F4CD2" transform="translate(82,18)"/>
<path d="M0 0 C0.62003906 0.35191406 1.24007812 0.70382813 1.87890625 1.06640625 C7.45304124 4.17396622 13.09164784 7.0575655 18.875 9.75 C19.5047876 10.04334229 20.1345752 10.33668457 20.78344727 10.63891602 C24.15310322 12.19251987 27.5404922 13.65828975 31 15 C30.01 16.485 30.01 16.485 29 18 C29 18.66 29 19.32 29 20 C29.99 20.33 30.98 20.66 32 21 C28.30114272 22.23295243 26.98449426 21.31318656 23.60400391 19.64990234 C22.90968262 19.29105957 22.21536133 18.9322168 21.5 18.5625 C20.43338135 18.01650146 20.43338135 18.01650146 19.34521484 17.45947266 C3.188618 8.98955435 3.188618 8.98955435 0.7109375 2.7578125 C0.35902344 1.39269531 0.35902344 1.39269531 0 0 Z " fill="#2638A9" transform="translate(46,200)"/>
<path d="M0 0 C3.67139821 2.44759881 3.66908238 3.50142118 4.625 7.6875 C4.86476562 8.70199219 5.10453125 9.71648437 5.3515625 10.76171875 C6.82527844 18.12142063 7.21217099 25.20208512 7.25 32.6875 C7.270625 33.71939453 7.29125 34.75128906 7.3125 35.81445312 C7.31765625 36.80767578 7.3228125 37.80089844 7.328125 38.82421875 C7.34214355 40.17132935 7.34214355 40.17132935 7.35644531 41.5456543 C6.93458373 44.45043135 5.9198652 45.82446958 4 48 C3 47 3 47 2.91821289 45.20922852 C2.9361792 44.44022217 2.95414551 43.67121582 2.97265625 42.87890625 C2.98635254 42.03046143 3.00004883 41.1820166 3.01416016 40.30786133 C3.0301123 39.40189209 3.04606445 38.49592285 3.0625 37.5625 C3.12635559 30.44760952 2.92186048 23.89307292 1 17 C-1.21517932 8.75312761 -1.21517932 8.75312761 -0.125 4.9375 C0.24625 4.298125 0.6175 3.65875 1 3 C0.34 2.67 -0.32 2.34 -1 2 C-0.67 1.34 -0.34 0.68 0 0 Z " fill="#037999" transform="translate(227,83)"/>
<path d="M0 0 C5.40570115 1.90299711 10.2862569 4.03702688 15.1875 7 C15.82244385 7.3808374 16.4573877 7.7616748 17.11157227 8.15405273 C23.98953067 12.41061669 30.0082281 17.59426988 36 23 C35.67 23.66 35.34 24.32 35 25 C34.34 25 33.68 25 33 25 C32.34 24.29875 31.68 23.5975 31 22.875 C21.88953803 13.50122988 6.2911716 7.66578802 -6 4 C-6 3.34 -6 2.68 -6 2 C-4.02 2 -2.04 2 0 2 C0 1.34 0 0.68 0 0 Z " fill="#182AA4" transform="translate(81,167)"/>
<path d="M0 0 C0.99 0.495 0.99 0.495 2 1 C2.50779934 3.02532685 2.93137381 5.07206263 3.3125 7.125 C4.58771856 13.04149625 6.15972737 16.39167284 10 21 C13 25.55172414 13 25.55172414 13 29 C9.00544473 28.38545304 6.25533664 26.29353263 3 24 C3 27.96 3 31.92 3 36 C2.67 36 2.34 36 2 36 C0.40218845 23.93081636 -0.25897692 12.17191501 0 0 Z " fill="#030695" transform="translate(14,85)"/>
<path d="M0 0 C0.33 0 0.66 0 1 0 C2.76755629 12.48511982 -3.32066722 25.14810568 -9 36 C-10.41256476 33.73560521 -11.09794943 32.563193 -10.63208008 29.88452148 C-10.20511841 28.76412476 -10.20511841 28.76412476 -9.76953125 27.62109375 C-9.30861084 26.36969604 -9.30861084 26.36969604 -8.83837891 25.09301758 C-8.49983887 24.21669678 -8.16129883 23.34037598 -7.8125 22.4375 C-7.14683213 20.63909434 -6.48404694 18.83961891 -5.82421875 17.0390625 C-5.3454126 15.7401709 -5.3454126 15.7401709 -4.85693359 14.41503906 C-3.50375042 10.60145275 -2.47263926 6.72725976 -1.5078125 2.80078125 C-1 1 -1 1 0 0 Z " fill="#03A9C7" transform="translate(230,132)"/>
<path d="M0 0 C0 0.99 0 1.98 0 3 C-2.83224336 5.62994026 -5.57695664 7.73211128 -8.84375 9.80078125 C-12.25245361 12.17590518 -15.00110804 14.77458469 -17.875 17.75 C-18.37257813 18.25660156 -18.87015625 18.76320313 -19.3828125 19.28515625 C-20.59323202 20.51885307 -21.79729853 21.75877784 -23 23 C-23 18.3518373 -21.80622423 15.85496655 -18.609375 12.46484375 C-17.66578125 11.63082031 -16.7221875 10.79679687 -15.75 9.9375 C-14.81671875 9.10089844 -13.8834375 8.26429687 -12.921875 7.40234375 C-4.82074165 0.74165256 -4.82074165 0.74165256 0 0 Z " fill="#4136B3" transform="translate(58,20)"/>
<path d="M0 0 C6.11555975 0.42916209 9.93564288 1.48595628 15 5 C15.33 5.99 15.66 6.98 16 8 C9.28743476 8.26877138 3.84245212 7.45047925 -2.5625 5.5 C-3.38041016 5.26152344 -4.19832031 5.02304688 -5.04101562 4.77734375 C-7.03051089 4.19561999 -9.01574189 3.59934441 -11 3 C-11 2.67 -11 2.34 -11 2 C-7.37 2 -3.74 2 0 2 C0 1.34 0 0.68 0 0 Z " fill="#17219B" transform="translate(66,162)"/>
<path d="M0 0 C0.66 0.33 1.32 0.66 2 1 C-0.44410673 6.23737156 -3.62013144 7.89288068 -8.6875 10.3125 C-13.81580166 12.82029587 -18.60036739 15.3336395 -23 19 C-23 19.66 -23 20.32 -23 21 C-23.99 21.33 -24.98 21.66 -26 22 C-25.23021349 16.47491944 -20.80345587 13.57283583 -16.66699219 10.24951172 C-13.56817693 7.92676179 -10.30869791 5.88319913 -7 3.875 C-6.34112793 3.4725708 -5.68225586 3.0701416 -5.00341797 2.65551758 C-3.37439769 1.70084479 -1.69049906 0.84102328 0 0 Z " fill="#255DBF" transform="translate(147,170)"/>
<path d="M0 0 C0.33 0 0.66 0 1 0 C1 5.28 1 10.56 1 16 C-3.02921041 17.0073026 -6.24990735 17.11408767 -10.390625 17.09765625 C-11.09523865 17.0962413 -11.79985229 17.09482635 -12.52581787 17.09336853 C-14.76725584 17.08778933 -17.00859243 17.07524073 -19.25 17.0625 C-20.77343605 17.05748231 -22.29687368 17.05291987 -23.8203125 17.04882812 C-27.54690772 17.03782674 -31.27344396 17.02057646 -35 17 C-35.33 17.99 -35.66 18.98 -36 20 C-36.33 18.35 -36.66 16.7 -37 15 C-24.79 15 -12.58 15 0 15 C0 10.05 0 5.1 0 0 Z " fill="#074E89" transform="translate(739,114)"/>
<path d="M0 0 C1.051875 0.58007812 1.051875 0.58007812 2.125 1.171875 C7.69832834 4.23114762 13.29206196 7.19987945 19 10 C18.34 11.32 17.68 12.64 17 14 C11.44513674 12.14837891 6.21898245 10.20729552 2 6 C0.5625 2.6875 0.5625 2.6875 0 0 Z " fill="#2B3AC8" transform="translate(46,200)"/>
<path d="M0 0 C5.28 0 10.56 0 16 0 C16 3.3 16 6.6 16 10 C15.67 10 15.34 10 15 10 C14.67 7.36 14.34 4.72 14 2 C12.37581255 1.91909029 10.75048255 1.86085005 9.125 1.8125 C8.22007812 1.77769531 7.31515625 1.74289063 6.3828125 1.70703125 C5.59648438 1.80371094 4.81015625 1.90039062 4 2 C1.46239173 5.80641241 1.65022525 8.96860355 1.5859375 13.38671875 C1.56657135 14.20372757 1.5472052 15.02073639 1.5272522 15.86250305 C1.46749648 18.47072934 1.42108742 21.07899986 1.375 23.6875 C1.3368165 25.4563994 1.29776454 27.22528028 1.2578125 28.99414062 C1.16179832 33.32927659 1.07775265 37.6644996 1 42 C0.67 42 0.34 42 0 42 C0 28.14 0 14.28 0 0 Z " fill="#2FA4EA" transform="translate(623,67)"/>
<path d="M0 0 C0.66 0 1.32 0 2 0 C3.11758334 2.60769447 3.98131244 4.86607252 4.375 7.6875 C4.684375 8.8321875 4.684375 8.8321875 5 10 C5.66 10.309375 6.32 10.61875 7 10.9375 C7.66 11.288125 8.32 11.63875 9 12 C9.75 15.125 9.75 15.125 10 18 C9.34 18 8.68 18 8 18 C8 19.65 8 21.3 8 23 C5.88659536 20.88659536 5.41564875 19.75014354 4.4921875 16.97265625 C4.22792969 16.18052734 3.96367187 15.38839844 3.69140625 14.57226562 C3.42199219 13.74404297 3.15257812 12.91582031 2.875 12.0625 C2.59785156 11.23814453 2.32070312 10.41378906 2.03515625 9.56445312 C0 3.39381927 0 3.39381927 0 0 Z " fill="#29179D" transform="translate(5,139)"/>
<path d="M0 0 C4.14853334 6.22280001 3.18320764 14.02165745 3.1875 21.25 C3.19974609 22.35085937 3.21199219 23.45171875 3.22460938 24.5859375 C3.22654297 25.63523437 3.22847656 26.68453125 3.23046875 27.765625 C3.23457764 28.72243164 3.23868652 29.67923828 3.24291992 30.66503906 C3 33 3 33 1 35 C0 34 0 34 -0.11352539 30.76538086 C-0.11336631 29.33185874 -0.10767407 27.89833088 -0.09765625 26.46484375 C-0.0962413 25.71159317 -0.09482635 24.95834259 -0.09336853 24.18226624 C-0.08775376 21.7673044 -0.07519883 19.35243399 -0.0625 16.9375 C-0.0574869 15.30403779 -0.05292366 13.67057414 -0.04882812 12.03710938 C-0.03777954 8.02470415 -0.02050506 4.01236759 0 0 Z " fill="#08C9E1" transform="translate(230,96)"/>
<path d="M0 0 C2.475 0.99 2.475 0.99 5 2 C6.1577506 5.47325181 6.06866652 8.36067448 6 12 C5.38125 12.12375 4.7625 12.2475 4.125 12.375 C1.80879168 12.87197356 1.80879168 12.87197356 0 15 C0 10.05 0 5.1 0 0 Z " fill="#0C0C9E" transform="translate(32,125)"/>
<path d="M0 0 C0 1.65 0 3.3 0 5 C-1.24420647 5.5345256 -2.49570936 6.05208611 -3.75 6.5625 C-4.44609375 6.85253906 -5.1421875 7.14257812 -5.859375 7.44140625 C-8.30012784 8.07831803 -9.6403655 7.80248831 -12 7 C-11.67 6.34 -11.34 5.68 -11 5 C-10.34 5 -9.68 5 -9 5 C-9 4.01 -9 3.02 -9 2 C-10.98 2.33 -12.96 2.66 -15 3 C-9.97583178 -0.34944548 -5.90048743 -0.09834146 0 0 Z " fill="#198ECC" transform="translate(187,158)"/>
<path d="M0 0 C0.99 0 1.98 0 3 0 C4.2173589 3.65207669 3.91015149 6.79493588 3.625 10.5625 C3.58117187 11.24763672 3.53734375 11.93277344 3.4921875 12.63867188 C3.13202679 17.73594643 3.13202679 17.73594643 2 20 C1.92966231 21.87379605 1.9156978 23.75001102 1.9375 25.625 C1.94652344 26.62789062 1.95554688 27.63078125 1.96484375 28.6640625 C1.97644531 29.43492187 1.98804688 30.20578125 2 31 C1.34 31.33 0.68 31.66 0 32 C0 21.44 0 10.88 0 0 Z " fill="#1F82B5" transform="translate(218,108)"/>
<path d="M0 0 C5.61 0 11.22 0 17 0 C17.33 11.22 17.66 22.44 18 34 C19.485 34.495 19.485 34.495 21 35 C20.34 35.99 19.68 36.98 19 38 C18.01 38 17.02 38 16 38 C16 25.79 16 13.58 16 1 C10.72 1 5.44 1 0 1 C0 0.67 0 0.34 0 0 Z " fill="#0B3F7C" transform="translate(623,66)"/>
<path d="M0 0 C2.97 0.33 5.94 0.66 9 1 C9 1.66 9 2.32 9 3 C6.36 2.34 3.72 1.68 1 1 C1.165 1.99 1.33 2.98 1.5 4 C2.08474517 8.02732942 2.07132024 11.93474623 2 16 C1.01 15.34 0.02 14.68 -1 14 C-1 13.34 -1 12.68 -1 12 C-1.66 12 -2.32 12 -3 12 C-3.33 15.3 -3.66 18.6 -4 22 C-4.33 22 -4.66 22 -5 22 C-5 16.06 -5 10.12 -5 4 C-4.67 4 -4.34 4 -4 4 C-3.67 5.65 -3.34 7.3 -3 9 C-2.34 9 -1.68 9 -1 9 C-0.67 6.03 -0.34 3.06 0 0 Z " fill="#292BB4" transform="translate(36,114)"/>
<path d="M0 0 C1.625 2.5 1.625 2.5 3 5 C1.23141309 5.67260351 -0.53996016 6.33788395 -2.3125 7 C-3.29863281 7.37125 -4.28476563 7.7425 -5.30078125 8.125 C-8 9 -8 9 -11 9 C-8.88341336 4.27838364 -5.62702462 0 0 0 Z " fill="#1163B4" transform="translate(157,166)"/>
<path d="M0 0 C0.75 1.75 0.75 1.75 1 4 C-1.21867135 6.77333918 -2.60620325 7.86873442 -6 9 C-7.64371491 9.09329934 -9.29114677 9.12995144 -10.9375 9.125 C-12.21947266 9.12886719 -12.21947266 9.12886719 -13.52734375 9.1328125 C-15.82680852 9.00930254 -17.79640348 8.64420687 -20 8 C-20 7.34 -20 6.68 -20 6 C-21.32 5.34 -22.64 4.68 -24 4 C-23.39414062 4.15597656 -22.78828125 4.31195313 -22.1640625 4.47265625 C-16.04786847 5.89349517 -10.13712969 6.79186268 -4 5 C-1.34162748 2.64419562 -1.34162748 2.64419562 0 0 Z " fill="#1D48A7" transform="translate(527,131)"/>
<path d="M0 0 C0.33 0.99 0.66 1.98 1 3 C-0.546875 5.375 -0.546875 5.375 -2.75 8 C-3.46671875 8.86625 -4.1834375 9.7325 -4.921875 10.625 C-9.47058824 15.82352941 -9.47058824 15.82352941 -13 17 C-11.51299286 12.17170572 -8.78716744 9.2512231 -5.375 5.6875 C-4.6015625 4.86282227 -4.6015625 4.86282227 -3.8125 4.02148438 C-2.54799382 2.67501946 -1.27485078 1.33667465 0 0 Z " fill="#3A22A9" transform="translate(35,37)"/>
<path d="M0 0 C-1.32 1.32 -2.64 2.64 -4 4 C-3.67 4.99 -3.34 5.98 -3 7 C-7.455 7.495 -7.455 7.495 -12 8 C-11.34 7.34 -10.68 6.68 -10 6 C-10 5.01 -10 4.02 -10 3 C-10.99 2.34 -11.98 1.68 -13 1 C-11.39796533 0.63631108 -9.79325797 0.28438048 -8.1875 -0.0625 C-7.29417969 -0.25972656 -6.40085938 -0.45695313 -5.48046875 -0.66015625 C-3 -1 -3 -1 0 0 Z " fill="#2DA6D4" transform="translate(196,156)"/>
<path d="M0 0 C1.31426642 3.94279926 0.45578798 6.07348483 -0.625 10.0625 C-0.94726562 11.31160156 -1.26953125 12.56070313 -1.6015625 13.84765625 C-3 17 -3 17 -5.6484375 18.43359375 C-6.42445312 18.62050781 -7.20046875 18.80742188 -8 19 C-6.65346233 11.86335037 -3.6492869 6.24280526 0 0 Z " fill="#0F0D7D" transform="translate(50,39)"/>
<path d="M0 0 C0.83265381 0.00523682 1.66530762 0.01047363 2.52319336 0.01586914 C3.42231445 0.0190918 4.32143555 0.02231445 5.24780273 0.02563477 C6.66609375 0.03820312 6.66609375 0.03820312 8.11303711 0.05102539 C9.06243164 0.05553711 10.01182617 0.06004883 10.98999023 0.06469727 C13.34356776 0.07652429 15.69702188 0.09300514 18.05053711 0.11352539 C18.05053711 1.10352539 18.05053711 2.09352539 18.05053711 3.11352539 C17.46038818 3.10305176 16.87023926 3.09257813 16.26220703 3.08178711 C13.58752707 3.04020496 10.91291514 3.01419249 8.23803711 2.98852539 C6.84488281 2.96338867 6.84488281 2.96338867 5.42358398 2.93774414 C4.5309082 2.93129883 3.63823242 2.92485352 2.71850586 2.91821289 C1.89632568 2.90773926 1.07414551 2.89726563 0.22705078 2.88647461 C-2.24367881 2.97356404 -2.24367881 2.97356404 -4.94946289 5.11352539 C-2.54694377 0.14831921 -2.54694377 0.14831921 0 0 Z " fill="#67697F" transform="translate(374.949462890625,95.886474609375)"/>
<path d="M0 0 C0 1.65 0 3.3 0 5 C-1.28745036 5.38922918 -2.58019597 5.76098036 -3.875 6.125 C-4.95394531 6.43824219 -4.95394531 6.43824219 -6.0546875 6.7578125 C-6.69664062 6.83773437 -7.33859375 6.91765625 -8 7 C-8.66 6.34 -9.32 5.68 -10 5 C-9.625 2.875 -9.625 2.875 -9 1 C-2.25 0 -2.25 0 0 0 Z " fill="#0671BC" transform="translate(178,160)"/>
<path d="M0 0 C0.66 0.33 1.32 0.66 2 1 C1.34 1.66 0.68 2.32 0 3 C0 3.99 0 4.98 0 6 C-0.804375 6.969375 -1.60875 7.93875 -2.4375 8.9375 C-6.10238775 13.74119468 -5.89448404 19.15825254 -6 25 C-6.33 25 -6.66 25 -7 25 C-7.62894395 16.08297238 -7.04679554 9.53960666 -2 2 C-1.34 1.34 -0.68 0.68 0 0 Z " fill="#2867A7" transform="translate(499,75)"/>
<path d="M0 0 C1.32 0 2.64 0 4 0 C2.54822555 4.11336093 0.61875142 7.50833145 -2 11 C-2.99 11.33 -3.98 11.66 -5 12 C-3.87522659 7.58742737 -2.84859279 3.61552161 0 0 Z " fill="#059FB5" transform="translate(216,168)"/>
<path d="M0 0 C0.33 0 0.66 0 1 0 C1.53132389 2.58157368 2.05034379 5.16461756 2.5625 7.75 C2.78969727 8.84441406 2.78969727 8.84441406 3.02148438 9.9609375 C3.74557178 13.66557073 4.09817231 16.39322322 3 20 C2.67 18.35 2.34 16.7 2 15 C1.34 15 0.68 15 0 15 C-0.19448477 12.87562788 -0.38038289 10.75046809 -0.5625 8.625 C-0.66691406 7.44164062 -0.77132813 6.25828125 -0.87890625 5.0390625 C-1 2 -1 2 0 0 Z " fill="#351AC5" transform="translate(5,124)"/>
<path d="M0 0 C2.81256281 -0.02684312 5.62487241 -0.04676188 8.4375 -0.0625 C9.23994141 -0.07087891 10.04238281 -0.07925781 10.86914062 -0.08789062 C12.91295221 -0.0965143 14.95683902 -0.0522815 17 0 C18 1 18 1 18.09765625 3.50390625 C18.08605469 4.51324219 18.07445312 5.52257812 18.0625 6.5625 C18.05347656 7.57441406 18.04445313 8.58632812 18.03515625 9.62890625 C18.02355469 10.41136719 18.01195312 11.19382812 18 12 C17.67 12 17.34 12 17 12 C16.505 7.05 16.505 7.05 16 2 C14.47375 2.020625 12.9475 2.04125 11.375 2.0625 C7.47180153 2.06804432 3.83337965 1.80702729 0 1 C0 0.67 0 0.34 0 0 Z " fill="#5B627B" transform="translate(462,66)"/>
<path d="M0 0 C0.7734375 0.3403125 0.7734375 0.3403125 1.5625 0.6875 C1.8925 2.0075 2.2225 3.3275 2.5625 4.6875 C1.9025 4.6875 1.2425 4.6875 0.5625 4.6875 C0.5625 3.6975 0.5625 2.7075 0.5625 1.6875 C-0.4275 2.1825 -1.4175 2.6775 -2.4375 3.1875 C-9.08078597 5.75094187 -16.4424088 4.91670809 -23.4375 4.6875 C-23.7675 4.0275 -24.0975 3.3675 -24.4375 2.6875 C-22.93509766 2.73970703 -22.93509766 2.73970703 -21.40234375 2.79296875 C-14.36734358 2.96170981 -6.01630899 -0.77132167 0 0 Z " fill="#085B84" transform="translate(837.4375,135.3125)"/>
<path d="M0 0 C3.573523 4.76469733 4.15212731 7.22717749 4.1875 13 C4.20167969 14.051875 4.21585938 15.10375 4.23046875 16.1875 C4 19 4 19 2 22 C1.34 14.74 0.68 7.48 0 0 Z " fill="#1D57B8" transform="translate(543,115)"/>
<path d="M0 0 C2.97 1.65 5.94 3.3 9 5 C9 6.65 9 8.3 9 10 C5.32408105 8.9789114 4.0660202 8.08564783 1.6875 5 C0 2 0 2 0 0 Z " fill="#242CA9" transform="translate(46,200)"/>
<path d="M0 0 C4.78775956 3.53613714 9.46451416 7.14483704 14 11 C13.67 11.66 13.34 12.32 13 13 C12.34 13 11.68 13 11 13 C9.33333333 11.33333333 7.66666667 9.66666667 6 8 C4.906875 7.319375 3.81375 6.63875 2.6875 5.9375 C1.800625 5.298125 0.91375 4.65875 0 4 C0 2.68 0 1.36 0 0 Z " fill="#2445B3" transform="translate(103,179)"/>
<path d="M0 0 C0.33 0.66 0.66 1.32 1 2 C0.34 1.67 -0.32 1.34 -1 1 C-0.67 0.67 -0.34 0.34 0 0 Z M-4 2 C-3.01 2.33 -2.02 2.66 -1 3 C-3.11905463 5.17277714 -5.24472878 7.33826908 -7.375 9.5 C-7.97828125 10.12003906 -8.5815625 10.74007812 -9.203125 11.37890625 C-9.78320312 11.96542969 -10.36328125 12.55195313 -10.9609375 13.15625 C-11.49509277 13.70087891 -12.02924805 14.24550781 -12.57958984 14.80664062 C-14 16 -14 16 -16 16 C-16 12.99472353 -14.05564773 12.05564773 -12 10 C-10.19616142 8.4669455 -8.37874538 6.95113961 -6.55859375 5.4375 C-4.88408658 4.06340788 -4.88408658 4.06340788 -4 2 Z " fill="#02C1DA" transform="translate(211,172)"/>
<path d="M0 0 C7.62314474 -0.23576736 14.58569409 0.16282685 22 2 C22 2.33 22 2.66 22 3 C14.40501039 3.26442904 7.42640842 2.60881575 0 1 C0 0.67 0 0.34 0 0 Z " fill="#080BA8" transform="translate(32,172)"/>
<path d="M0 0 C-0.66 3.63 -1.32 7.26 -2 11 C-2.66 11 -3.32 11 -4 11 C-5.25 8.3125 -5.25 8.3125 -6 5 C-2.95652174 0 -2.95652174 0 0 0 Z " fill="#1D4BCE" transform="translate(65,46)"/>
<path d="M0 0 C0.66 0 1.32 0 2 0 C2 0.66 2 1.32 2 2 C2.66 2.33 3.32 2.66 4 3 C3.01 3.495 3.01 3.495 2 4 C1.67 11.59 1.34 19.18 1 27 C0.67 27 0.34 27 0 27 C0 18.09 0 9.18 0 0 Z " fill="#0B2D7D" transform="translate(572,148)"/>
<path d="M0 0 C2.25 1.375 2.25 1.375 3.25 4.375 C1.79207116 4.42899736 0.33357288 4.46779177 -1.125 4.5 C-1.93710938 4.52320313 -2.74921875 4.54640625 -3.5859375 4.5703125 C-5.75 4.375 -5.75 4.375 -7.75 2.375 C-3.48627845 -0.79233601 -3.48627845 -0.79233601 0 0 Z " fill="#0A19A0" transform="translate(78.75,165.625)"/>
<path d="M0 0 C4.62 0 9.24 0 14 0 C9.09573904 3.67819572 7.86328807 3.56741497 2 3 C1.34 2.01 0.68 1.02 0 0 Z " fill="#0B569C" transform="translate(710,139)"/>
<path d="M0 0 C0.33 0 0.66 0 1 0 C1.23709676 7.11290272 0.42580434 10.36715811 -4 16 C-3.39891424 10.34979382 -1.92471317 5.33835539 0 0 Z " fill="#2B198E" transform="translate(10,75)"/>
<path d="M0 0 C0.66 0.33 1.32 0.66 2 1 C0.84826645 3.46800047 -0.04783565 5.04783565 -2 7 C-5.625 6.625 -5.625 6.625 -9 6 C-6.12050853 3.76039553 -3.23257974 1.70135776 0 0 Z " fill="#226CBC" transform="translate(147,170)"/>
<path d="M0 0 C6.2054142 0.48320848 11.99945246 1.33318124 18 3 C18 3.33 18 3.66 18 4 C14.33694766 4.74926071 11.57644848 5.2380014 8 4 C8 3.34 8 2.68 8 2 C6.68 2.33 5.36 2.66 4 3 C4 2.34 4 1.68 4 1 C2.68 0.67 1.36 0.34 0 0 Z " fill="#172599" transform="translate(66,177)"/>
<path d="M0 0 C0.99 0.495 0.99 0.495 2 1 C2.59355614 3.64860427 2.74209269 6.29197322 3 9 C2.34 9 1.68 9 1 9 C1 11.97 1 14.94 1 18 C0.67 18 0.34 18 0 18 C0 12.06 0 6.12 0 0 Z " fill="#090DA5" transform="translate(14,85)"/>
<path d="M0 0 C3 2 3 2 3.6875 5.125 C3.790625 6.07375 3.89375 7.0225 4 8 C3.34 8 2.68 8 2 8 C2 9.65 2 11.3 2 13 C-0.43773135 10.56226865 -0.61487376 9.38911094 -1 6 C-0.5625 2.6875 -0.5625 2.6875 0 0 Z " fill="#180F9B" transform="translate(11,149)"/>
<path d="M0 0 C0.99 0.33 1.98 0.66 3 1 C0.03 3.97 -2.94 6.94 -6 10 C-6 7 -6 7 -5 4 C-2.625 1.75 -2.625 1.75 0 0 Z " fill="#4B28D0" transform="translate(41,33)"/>
<path d="M0 0 C0.66 0 1.32 0 2 0 C1.835 0.928125 1.67 1.85625 1.5 2.8125 C0.92251612 5.95621353 0.92251612 5.95621353 1 9 C-0.32 9 -1.64 9 -3 9 C-2.34 8.67 -1.68 8.34 -1 8 C-1.020625 6.865625 -1.04125 5.73125 -1.0625 4.5625 C-1 1 -1 1 0 0 Z " fill="#4664DE" transform="translate(73,17)"/>
<path d="M0 0 C0.33 0 0.66 0 1 0 C1.05395478 1.62463842 1.09277195 3.24978541 1.125 4.875 C1.14820313 5.77992187 1.17140625 6.68484375 1.1953125 7.6171875 C1 10 1 10 -1 12 C-1.33 11.67 -1.66 11.34 -2 11 C-1.93621032 9.32987017 -1.79971885 7.66219015 -1.625 6 C-1.53476563 5.0925 -1.44453125 4.185 -1.3515625 3.25 C-1 1 -1 1 0 0 Z " fill="#06ACCD" transform="translate(232,119)"/>
<path d="M0 0 C1.9375 0.375 1.9375 0.375 4 1 C4.33 1.66 4.66 2.32 5 3 C5.9590625 3.1546875 5.9590625 3.1546875 6.9375 3.3125 C7.618125 3.539375 8.29875 3.76625 9 4 C10.25 6.5625 10.25 6.5625 11 9 C8.03469503 7.64199529 5.70868729 6.07571737 3.25 3.9375 C2.63640625 3.41027344 2.0228125 2.88304687 1.390625 2.33984375 C0.93171875 1.89769531 0.4728125 1.45554688 0 1 C0 0.67 0 0.34 0 0 Z " fill="#1B1F87" transform="translate(37,196)"/>
<path d="M0 0 C0.33 0 0.66 0 1 0 C1.33 3.63 1.66 7.26 2 11 C2.99 11.33 3.98 11.66 5 12 C4.01 13.485 4.01 13.485 3 15 C2.01 15 1.02 15 0 15 C0 10.05 0 5.1 0 0 Z " fill="#0C4A87" transform="translate(639,89)"/>
<path d="M0 0 C1.75 0.125 1.75 0.125 4 1 C6.25 4.0625 6.25 4.0625 8 7 C5.6875 6.8125 5.6875 6.8125 3 6 C0 1.86206897 0 1.86206897 0 0 Z " fill="#251EB8" transform="translate(27,183)"/>
<path d="M0 0 C0.66 0.33 1.32 0.66 2 1 C2 1.99 2 2.98 2 4 C-2.95 5.485 -2.95 5.485 -8 7 C-5.42215154 4.35247996 -3.08351902 2.05567935 0 0 Z " fill="#E1E8F4" transform="translate(131,183)"/>
<path d="M0 0 C0 0.66 0 1.32 0 2 C-2.3125 3.6875 -2.3125 3.6875 -5 5 C-5.99 4.67 -6.98 4.34 -8 4 C-7.67 3.01 -7.34 2.02 -7 1 C-4.53721199 -0.231394 -2.7204945 -0.07159196 0 0 Z " fill="#145FBA" transform="translate(142,176)"/>
<path d="M0 0 C2.4375 0.75 2.4375 0.75 5 2 C5.8125 4.125 5.8125 4.125 6 6 C3.0625 5.1875 3.0625 5.1875 0 4 C-0.33 3.01 -0.66 2.02 -1 1 C-0.67 0.67 -0.34 0.34 0 0 Z " fill="#1029A2" transform="translate(97,176)"/>
<path d="M0 0 C0.66 0.33 1.32 0.66 2 1 C0.88200014 2.33920838 -0.24461897 3.67122556 -1.375 5 C-2.00148438 5.7425 -2.62796875 6.485 -3.2734375 7.25 C-4.12808594 8.11625 -4.12808594 8.11625 -5 9 C-5.66 9 -6.32 9 -7 9 C-5.44499019 5.18315774 -2.96404505 2.80804268 0 0 Z " fill="#9AA0B1" transform="translate(284,72)"/>
<path d="M0 0 C0.99 0.66 1.98 1.32 3 2 C1.25 7.75 1.25 7.75 -1 10 C-2.46726798 6.18510326 -1.43336419 3.70988378 0 0 Z " fill="#019CB7" transform="translate(221,158)"/>
<path d="M0 0 C0.66 0.33 1.32 0.66 2 1 C0.88200014 2.33920838 -0.24461897 3.67122556 -1.375 5 C-2.00148438 5.7425 -2.62796875 6.485 -3.2734375 7.25 C-4.12808594 8.11625 -4.12808594 8.11625 -5 9 C-5.66 9 -6.32 9 -7 9 C-5.44499019 5.18315774 -2.96404505 2.80804268 0 0 Z " fill="#0A9FBB" transform="translate(801,100)"/>
<path d="M0 0 C0.33 0 0.66 0 1 0 C1.02694851 1.95825873 1.04637218 3.91662226 1.0625 5.875 C1.07410156 6.96554688 1.08570313 8.05609375 1.09765625 9.1796875 C1 12 1 12 0 14 C-0.99 13.67 -1.98 13.34 -3 13 C-2.68289062 12.43796875 -2.36578125 11.8759375 -2.0390625 11.296875 C-0.93125475 8.84803683 -0.61024601 6.91612145 -0.375 4.25 C-0.30023437 3.45078125 -0.22546875 2.6515625 -0.1484375 1.828125 C-0.09945313 1.22484375 -0.05046875 0.6215625 0 0 Z " fill="#2A35B3" transform="translate(19,149)"/>
<path d="M0 0 C-0.33 1.32 -0.66 2.64 -1 4 C-2.98 3.34 -4.96 2.68 -7 2 C-7 1.34 -7 0.68 -7 0 C-4.3333581 -1.33332095 -2.83319697 -0.67102033 0 0 Z " fill="#2637AB" transform="translate(98,175)"/>
<path d="M0 0 C0.99 0.33 1.98 0.66 3 1 C2.67 1.66 2.34 2.32 2 3 C3.65 2.67 5.3 2.34 7 2 C6.01 3.485 6.01 3.485 5 5 C2.375 5.1875 2.375 5.1875 0 5 C0 3.35 0 1.7 0 0 Z " fill="#035096" transform="translate(201,114)"/>
<path d="M0 0 C0.66 0 1.32 0 2 0 C1.75 2.875 1.75 2.875 1 6 C-1.0625 7.375 -1.0625 7.375 -3 8 C-1.125 1.125 -1.125 1.125 0 0 Z " fill="#03BFCB" transform="translate(214,172)"/>
<path d="M0 0 C2.02045442 0.60183749 4.02111039 1.27306096 6 2 C6.33 2.66 6.66 3.32 7 4 C5.02 4.33 3.04 4.66 1 5 C0.67 3.35 0.34 1.7 0 0 Z " fill="#23319E" transform="translate(69,162)"/>
<path d="M0 0 C0.6875 1.8125 0.6875 1.8125 1 4 C-0.84159673 6.48615558 -2.00470711 7.00156904 -5 8 C-3.8141763 4.62496331 -2.72426311 2.35277269 0 0 Z " fill="#2D1C95" transform="translate(27,46)"/>
<path d="M0 0 C0.99 0 1.98 0 3 0 C2.55090939 1.48199902 2.09043436 2.96055236 1.625 4.4375 C1.36976562 5.26121094 1.11453125 6.08492187 0.8515625 6.93359375 C0 9 0 9 -2 10 C-2.1953125 3.9453125 -2.1953125 3.9453125 -2 2 C-1.34 1.34 -0.68 0.68 0 0 Z " fill="#2239C5" transform="translate(69,34)"/>
<path d="M0 0 C-2.31 1.65 -4.62 3.3 -7 5 C-7.66 4.67 -8.32 4.34 -9 4 C-6.56225426 0.2214941 -6.56225426 0.2214941 -3.9375 -0.8125 C-2 -1 -2 -1 0 0 Z " fill="#076D92" transform="translate(189,206)"/>
<path d="M0 0 C3.465 1.98 3.465 1.98 7 4 C6.67 4.66 6.34 5.32 6 6 C3.5625 5.25 3.5625 5.25 1 4 C0.1875 1.875 0.1875 1.875 0 0 Z " fill="#2D35C8" transform="translate(46,200)"/>
<path d="M0 0 C0 0.66 0 1.32 0 2 C-0.66 2 -1.32 2 -2 2 C-2.66 3.32 -3.32 4.64 -4 6 C-4.66 6 -5.32 6 -6 6 C-6 4.68 -6 3.36 -6 2 C-2.25 0 -2.25 0 0 0 Z " fill="#13BBD8" transform="translate(214,168)"/>
<path d="M0 0 C0.33 0 0.66 0 1 0 C0.67 2.64 0.34 5.28 0 8 C-0.99 7.34 -1.98 6.68 -3 6 C-1.125 1.125 -1.125 1.125 0 0 Z " fill="#2D3AD1" transform="translate(59,46)"/>
<path d="M0 0 C1.65 0 3.3 0 5 0 C3.37660195 1.70884005 1.70680947 3.37446717 0 5 C-0.66 5 -1.32 5 -2 5 C-1.34 3.35 -0.68 1.7 0 0 Z " fill="#4F4BC4" transform="translate(62,16)"/>
<path d="M0 0 C-5.2734375 3.22265625 -5.2734375 3.22265625 -7 4 C-7.66 3.67 -8.32 3.34 -9 3 C-5.83583464 -0.30799106 -4.50236011 -1.35070803 0 0 Z " fill="#136FA0" transform="translate(180,212)"/>
<path d="M0 0 C0.33 0 0.66 0 1 0 C1.125 5.75 1.125 5.75 0 8 C-0.99 8 -1.98 8 -3 8 C-1.125 2.25 -1.125 2.25 0 0 Z " fill="#24188A" transform="translate(14,66)"/>
<path d="M0 0 C2 3 2 3 2 5 C0.02 5.99 0.02 5.99 -2 7 C-1.125 2.25 -1.125 2.25 0 0 Z M-4 7 C-3.01 7.495 -3.01 7.495 -2 8 C-2.99 8.495 -2.99 8.495 -4 9 C-4 8.34 -4 7.68 -4 7 Z " fill="#0DC8E0" transform="translate(216,163)"/>
</svg>
